<svg width="1402" height="348" viewBox="0 0 1402 348" fill="none" xmlns="http://www.w3.org/2000/svg">
<path d="M1351.68 130.187C1352.69 142.89 1350.45 167.745 1333.44 165.537C1312.17 162.776 1310.34 164.438 1294.03 154.432C1277.73 144.426 1294.55 135.604 1286.92 119.75C1279.28 103.896 1252.84 118.076 1241.18 111.761C1229.53 105.446 1225.98 79.2259 1235.22 75.087C1244.46 70.948 1285.02 53.4239 1300.64 71.9786C1316.26 90.5332 1303.15 102.419 1308.07 116.951C1312.98 131.484 1355.17 107.843 1350.95 91.6988C1346.73 75.555 1307.72 73.6377 1310.56 85.79C1312.84 95.5118 1338.92 119.438 1351.68 130.187Z" stroke="#FFE379" stroke-opacity="0.9" stroke-width="2"/>
<path d="M1235.82 101.814C1232.62 95.8675 1208.68 73.7484 1236.62 66.1376C1271.55 56.624 1257.15 80.4079 1284.35 93.4891C1311.54 106.57 1291.28 53.3536 1323.54 51.8671C1355.81 50.3806 1388.07 73.2726 1381.67 99.7322C1375.27 126.192 1302.21 129.165 1312.88 176.138C1323.54 223.111 1397.13 221.328 1400.6 203.49C1404.07 185.652 1394.47 170.192 1388.07 148.192C1381.67 126.192 1355.81 129.462 1343.81 148.192C1331.81 166.922 1337.67 248.679 1294.21 226.084C1250.75 203.49 1238.75 178.517 1275.82 142.543C1312.88 106.57 1320.34 80.408 1294.21 66.1376C1268.08 51.8671 1181.43 28.6781 1193.96 80.1107C1206.49 131.543 1211.99 125.895 1259.82 112.814C1307.65 99.7322 1327.54 103.3 1305.94 135.408C1284.35 167.517 1301.68 193.381 1263.82 184.76C1225.95 176.138 1181.69 166.327 1209.16 148.192C1231.13 133.684 1235.82 117.273 1237.42 112.814C1239.02 108.354 1239.02 107.759 1235.82 101.814Z" stroke="#FFE379" stroke-opacity="0.9"/>
<path d="M1234.64 158.393C1227.69 161.515 1202.01 184.49 1192.65 158.253C1180.96 125.456 1209.15 138.633 1224.15 112.744C1239.15 86.8551 1176.83 106.894 1174.62 76.4755C1172.41 46.0569 1198.89 15.2182 1230.1 20.8008C1261.32 26.3834 1265.86 95.2719 1320.97 84.3983C1376.08 73.5247 1372.93 4.11248 1351.9 1.14899C1330.86 -1.81451 1312.81 7.50966 1287.02 13.9273C1261.23 20.3449 1265.45 44.6942 1287.66 55.6937C1309.86 66.6932 1405.96 59.7491 1380 101.15C1354.04 142.551 1324.83 154.303 1281.98 119.95C1239.13 85.5971 1208.25 79.0029 1191.83 103.906C1175.42 128.809 1149.37 210.98 1209.7 198.269C1270.03 185.557 1263.31 180.466 1247.23 135.559C1231.16 90.6516 1235.07 71.8152 1273.16 91.6419C1311.24 111.469 1341.42 94.6686 1331.82 130.545C1322.21 166.422 1311.3 208.357 1289.58 182.754C1272.2 162.272 1252.82 158.126 1247.55 156.694C1242.28 155.261 1241.58 155.271 1234.64 158.393Z" stroke="#FFE379" stroke-opacity="0.9"/>
<path d="M98.7312 205.742C96.6639 201.886 81.1934 187.539 99.2481 182.602C121.816 176.432 112.513 191.858 130.086 200.343C147.658 208.828 134.565 174.311 155.411 173.346C176.256 172.382 197.102 187.23 192.967 204.393C188.832 221.555 141.628 223.483 148.519 253.951C155.411 284.418 202.959 283.261 205.199 271.691C207.438 260.121 201.236 250.094 197.102 235.824C192.967 221.555 176.256 223.676 168.504 235.824C160.751 247.973 164.541 301.002 136.46 286.347C108.379 271.691 100.626 255.493 124.573 232.161C148.519 208.828 153.343 191.859 136.46 182.602C119.577 173.346 63.5866 158.306 71.6837 191.666C79.7807 225.026 83.3332 221.362 114.236 212.877C145.139 204.393 157.995 206.707 144.04 227.533C130.086 248.358 141.284 265.135 116.82 259.543C92.357 253.951 63.7589 247.587 81.5035 235.824C95.6992 226.414 98.7312 215.77 99.7649 212.877C100.799 209.985 100.799 209.599 98.7312 205.742Z" stroke="#FFE379" stroke-opacity="0.9" stroke-width="2"/>
<path d="M3.06093 183.786C-1.76882 149.954 -1.18476 82.8844 39.7895 85.2638C91.0073 88.2381 95.0507 83.405 135.823 106.827C176.595 130.25 138.182 157.39 159.41 198.286C180.638 239.182 240.954 195.683 269.933 210.183C298.911 224.683 312.389 294.206 291.161 307.218C269.933 320.231 176.595 375.627 135.823 329.154C95.0507 282.681 124.029 248.105 109.54 210.183C95.0507 172.261 -0.982596 244.387 12.1588 286.77C25.3002 329.154 118.638 326.179 109.54 294.206C102.262 268.627 35.5213 209.935 3.06093 183.786Z" stroke="#FFE379" stroke-opacity="0.9"/>
<path d="M294.605 249.268C296.672 278.629 292.062 336.077 257.085 330.982C213.363 324.612 209.601 328.453 176.086 305.334C142.572 282.215 177.162 261.816 161.471 225.177C145.78 188.537 91.4122 221.325 67.4603 206.734C43.5084 192.144 36.2146 131.543 55.2089 121.972C74.2031 112.402 157.606 71.8786 189.709 114.756C221.811 157.634 194.852 185.111 204.949 218.698C215.045 252.286 301.784 197.623 293.116 160.311C284.448 123 204.257 118.588 210.097 146.674C214.769 169.143 268.382 224.432 294.605 249.268Z" stroke="#FFE379" stroke-opacity="0.9"/>
</svg>
