<svg width="1920" height="1080" viewBox="0 0 1440 605" fill="none" xmlns="http://www.w3.org/2000/svg">
<path d="M1052.08 205.941C1080.27 248.838 1097.68 190.537 1116.51 195.233C1140.05 201.104 1128.72 237.061 1139.73 252.104C1150.75 267.147 1219.2 184.127 1233.06 185.534C1246.92 186.941 1160.67 317.296 1175.91 320.583C1191.14 323.87 1215.22 261.571 1231.83 266.738C1248.45 271.906 1222.62 304.589 1238.52 313.166C1254.42 321.742 1295.1 215.175 1309.63 221.871C1324.15 228.567 1273.59 294.949 1295.76 298.94C1317.92 302.93 1330.37 232.679 1343.52 237.495C1356.66 242.311 1331.28 280.994 1346.52 284.281C1361.75 287.568 1362.52 262.449 1377.75 265.736C1392.99 269.023 1384.8 287.067 1400.7 295.644C1413.42 302.505 1422.68 264.648 1439.53 276.541" stroke="#F4D35E"/>
<path d="M121.069 153.73C117.477 151.423 88.7387 151.423 85.1465 153.73C81.5542 156.036 80.656 174.668 83.3501 175.794C86.0441 176.919 88.7997 176.919 90.6264 176.919L92.3308 184.774C93.2289 178.488 98.298 178.156 99.7593 176.919C101.586 175.373 118.375 179.386 121.967 176.692C125.56 173.997 124.662 156.036 121.069 153.73Z" stroke="white" stroke-width="0.7"/>
<line x1="90.5347" y1="161.822" x2="115.681" y2="161.822" stroke="white"/>
<line x1="90.5347" y1="161.822" x2="115.681" y2="161.822" stroke="white"/>
<line x1="90.5347" y1="161.822" x2="115.681" y2="161.822" stroke="white"/>
<line x1="90.5347" y1="161.822" x2="115.681" y2="161.822" stroke="white"/>
<line x1="90.5347" y1="167.212" x2="115.681" y2="167.212" stroke="white"/>
<line x1="90.5347" y1="167.212" x2="115.681" y2="167.212" stroke="white"/>
<line x1="90.5347" y1="167.212" x2="115.681" y2="167.212" stroke="white"/>
<line x1="90.5347" y1="167.212" x2="115.681" y2="167.212" stroke="white"/>
<path d="M62.6938 171.238C65.7323 168.931 90.0401 168.931 93.0785 171.238C96.117 173.544 96.8767 192.176 94.5979 193.301C92.3192 194.427 89.9885 194.427 88.4434 194.427L87.0018 202.282C86.2422 195.996 81.9545 195.664 80.7185 194.427C79.1736 192.881 64.9727 196.894 61.9342 194.199C58.8957 191.505 59.6554 173.544 62.6938 171.238Z" stroke="white" stroke-width="0.7"/>
<path d="M81.5537 181.183H67.2519" stroke="white"/>
<path d="M81.5537 181.183H67.2519" stroke="white"/>
<path d="M81.5537 181.183H67.2519" stroke="white"/>
<path d="M81.5537 181.183H67.2519" stroke="white"/>
<line y1="-0.5" x2="12.1539" y2="-0.5" transform="matrix(-1 0 0 1 79.3384 187.47)" stroke="white"/>
<line y1="-0.5" x2="12.1539" y2="-0.5" transform="matrix(-1 0 0 1 79.3384 187.47)" stroke="white"/>
<line y1="-0.5" x2="12.1539" y2="-0.5" transform="matrix(-1 0 0 1 79.3384 187.47)" stroke="white"/>
<line y1="-0.5" x2="12.1539" y2="-0.5" transform="matrix(-1 0 0 1 79.3384 187.47)" stroke="white"/>
<path d="M307.754 354.421C307.754 354.421 510.775 447.19 582.485 373.692" stroke="white" stroke-linecap="round" stroke-dasharray="5 5"/>
<path d="M303.041 351.639C303.041 351.639 96.2122 235.825 2.82923 344.621" stroke="white" stroke-linecap="round" stroke-dasharray="5 5"/>
<path d="M1446 531.5C1340 433.5 1313 435.999 1290 446C1267 456 1269 503 1311 503C1353 503 1360.5 443 1330 418C1299.5 393 1244.8 377.751 1196.5 389.001C1160.5 397.384 1120 415.833 1090.5 429.5" stroke="white" stroke-linecap="round" stroke-dasharray="5 5"/>
<path d="M1032.96 371.396C1032.96 371.396 734.492 255.582 599.734 364.379" stroke="white" stroke-linecap="round" stroke-dasharray="5 5"/>
<path d="M1133.26 84.9994C1133.26 84.9994 930.912 177.768 859.439 104.27" stroke="white" stroke-linecap="round" stroke-dasharray="5 5"/>
<path d="M1137.96 82.2167C1137.96 82.2167 1344.11 -33.5973 1437.18 75.1995" stroke="white" stroke-linecap="round" stroke-dasharray="5 5"/>
<path d="M423.865 98.0003C375.5 108.5 365 59.9242 399.999 48C434.999 36.0758 473.399 122.499 335.499 134.5C197.598 146.5 177.29 45.0003 114.498 98.0003C51.7059 151 -8.00206 30.5005 -8.00206 30.5005" stroke="white" stroke-linecap="round" stroke-dasharray="5 5"/>
<path d="M423.866 98.0002C425.86 96.5002 725.687 -4.79632 860 104" stroke="white" stroke-linecap="round" stroke-dasharray="5 5"/>
<path d="M-2 347.5C2.50236 407.902 68.5128 378.807 88.5206 393.827C113.53 412.601 50.009 424.507 52.982 446.289C55.9549 468.071 157.786 420.229 167.15 436.135C180.433 458.7 15.751 493.674 24.2125 519.058C30.605 538.236 93.8534 488.519 110.774 502.85C127.695 517.182 72.5108 537.953 86.1305 555.508C99.7503 573.063 225.763 482.109 239.011 496.941C252.259 511.774 142.511 554.968 167.15 571.02C191.788 587.071 257.046 519.441 269.923 531.551C282.799 543.661 232.741 563.296 249.291 574.905" stroke="#F4D35E"/>
<path d="M934 10.4174L894.545 10.4173L894.545 35.3626H900.564L902.57 42.8462C903.685 40.906 908.99 36.693 910.595 35.3626C912.601 33.6995 934 34.5311 934 34.5311V10.4174Z" stroke="#FFE54F" stroke-width="0.7"/>
<path d="M872 24.4946L909.576 24.4945L909.576 49.4397H903.844L901.933 56.9234C900.871 54.9832 895.819 50.7701 894.291 49.4397C892.38 47.7767 872 48.6082 872 48.6082V24.4946Z" stroke="#FFE54F" stroke-width="0.7"/>
<path d="M1318.07 91.7297C1314.48 89.4235 1285.74 89.4234 1282.15 91.7297C1278.55 94.036 1277.66 112.668 1280.35 113.794C1283.04 114.919 1285.8 114.919 1287.63 114.919L1289.33 122.774C1290.23 116.488 1295.3 116.156 1296.76 114.919C1298.59 113.373 1315.38 117.386 1318.97 114.692C1322.56 111.997 1321.66 94.036 1318.07 91.7297Z" stroke="white" stroke-width="0.7"/>
<line x1="1287.53" y1="99.8223" x2="1312.68" y2="99.8223" stroke="white"/>
<line x1="1287.53" y1="99.8223" x2="1312.68" y2="99.8223" stroke="white"/>
<line x1="1287.53" y1="99.8223" x2="1312.68" y2="99.8223" stroke="white"/>
<line x1="1287.53" y1="99.8223" x2="1312.68" y2="99.8223" stroke="white"/>
<line x1="1287.53" y1="105.212" x2="1312.68" y2="105.212" stroke="white"/>
<line x1="1287.53" y1="105.212" x2="1312.68" y2="105.212" stroke="white"/>
<line x1="1287.53" y1="105.212" x2="1312.68" y2="105.212" stroke="white"/>
<line x1="1287.53" y1="105.212" x2="1312.68" y2="105.212" stroke="white"/>
<path d="M1259.69 109.238C1262.73 106.931 1287.04 106.931 1290.08 109.238C1293.12 111.544 1293.88 130.176 1291.6 131.301C1289.32 132.427 1286.99 132.427 1285.44 132.427L1284 140.282C1283.24 133.996 1278.95 133.664 1277.72 132.427C1276.17 130.881 1261.97 134.894 1258.93 132.199C1255.9 129.505 1256.66 111.544 1259.69 109.238Z" stroke="white" stroke-width="0.7"/>
<path d="M1278.55 119.183H1264.25" stroke="white"/>
<path d="M1278.55 119.183H1264.25" stroke="white"/>
<path d="M1278.55 119.183H1264.25" stroke="white"/>
<path d="M1278.55 119.183H1264.25" stroke="white"/>
<line y1="-0.5" x2="12.1539" y2="-0.5" transform="matrix(-1 0 0 1 1276.34 125.47)" stroke="white"/>
<line y1="-0.5" x2="12.1539" y2="-0.5" transform="matrix(-1 0 0 1 1276.34 125.47)" stroke="white"/>
<line y1="-0.5" x2="12.1539" y2="-0.5" transform="matrix(-1 0 0 1 1276.34 125.47)" stroke="white"/>
<line y1="-0.5" x2="12.1539" y2="-0.5" transform="matrix(-1 0 0 1 1276.34 125.47)" stroke="white"/>
</svg>
