<svg width="1920" height="1080" viewBox="0 0 1440 1024" fill="none" xmlns="http://www.w3.org/2000/svg">
<path d="M309.838 462.108L341.565 382.354L279.358 372.643" stroke="#FFE379" stroke-opacity="0.9" stroke-width="2.5"/>
<path d="M335.126 384.791C285.225 421.604 196.039 445.023 142.729 429.246M142.729 429.246C103.033 417.498 77.5291 324.113 152.858 284.332C223.949 226.683 243.846 377.961 142.729 429.246ZM142.729 429.246C41.6119 480.531 -13.6488 455.086 -50.3069 441.005" stroke="#FFE379" stroke-opacity="0.9" stroke-width="2.5"/>
<path d="M1136.7 310.86L1119.51 357.42L1163.11 364.434" stroke="white" stroke-width="5"/>
<path d="M1122.1 355.981C1173.9 326.617 1222.31 273.739 1286.57 261.354M1286.57 261.354C1334.41 252.131 1428.58 284.704 1376.8 359.978C1346.83 403.547 1205.2 378.499 1286.57 261.354ZM1286.57 261.354C1367.93 144.209 1439.07 141.853 1484.87 137.064" stroke="white" stroke-width="5"/>
<path d="M913.275 253L918.755 242L922.069 253L912 243.725L925 245.451L913.275 253Z" stroke="#FFE379" stroke-opacity="0.9" stroke-width="1.5"/>
<path d="M313.275 342L318.755 331L322.069 342L312 332.725L325 334.451L313.275 342Z" stroke="#FFE379" stroke-opacity="0.9" stroke-width="1.5"/>
<path d="M169.725 654L185.745 624L195.431 654L166 628.706L204 633.412L169.725 654Z" stroke="#FFE379" stroke-opacity="0.9" stroke-width="5"/>
<path d="M1104.73 524L1120.75 494L1130.43 524L1101 498.706L1139 503.412L1104.73 524Z" stroke="white" stroke-width="5"/>
<path d="M961.471 971L967.794 956L971.618 971L960 958.353L975 960.706L961.471 971Z" stroke="white" stroke-width="2"/>
<path d="M-185.109 769.903C-118.933 735.444 2.14883 702.871 63.2748 828.176C124.401 953.482 71.2444 1003.89 49.9359 1017.4C25.1066 1033.14 3.36222 1034.46 -6.83364 1008.78C-22.5079 969.316 26.1963 957.626 26.1963 957.626C26.1963 957.626 144.376 930.996 171.478 1031.34C198.58 1131.67 89.0947 1199.58 59.8383 1220.01" stroke="white" stroke-width="5"/>
<path d="M1522.67 1020.41C1448.56 1028.99 1323.82 1016.22 1311.43 877.35C1299.04 738.482 1366.68 710.355 1391.41 705.338C1420.22 699.493 1441 706.024 1441.36 733.645C1441.92 776.108 1392.25 769.651 1392.25 769.651C1392.25 769.651 1272.35 752.361 1282.84 648.956C1293.32 545.551 1419.83 521.181 1454.45 512.533" stroke="white" stroke-width="5"/>
</svg>
