<svg width="1920" height="1080" viewBox="0 0 1445 1000" fill="none" xmlns="http://www.w3.org/2000/svg">
<g clip-path="url(#clip0_876_136)">
<rect width="1445" height="1000" fill="white"/>
<path d="M204.627 60.5967C227.008 59.0277 252.522 29.2183 259.684 33.4021C265.056 36.5399 253.417 48.5683 255.208 55.8899C256.998 63.2115 265.503 61.1196 270.427 59.0277C275.351 56.9359 290.452 45.4304 298.179 45.4304C306.236 45.4304 318.77 56.52 325.932 57.0429C333.094 57.5659 345.179 64.7804 392.627 39.6777" stroke="white" stroke-width="4"/>
<path d="M229.034 94V85.146L225.576 91.739H224.113L220.655 85.146V94H218.033V80.51H220.845L224.835 88.186L228.863 80.51H231.656V94H229.034ZM239.317 94V80.51H241.939V94H239.317ZM258.605 94H256.059V88.414C256.059 87.616 255.92 87.0333 255.641 86.666C255.362 86.2987 254.976 86.115 254.482 86.115C254.14 86.115 253.792 86.2037 253.437 86.381C253.095 86.5583 252.785 86.8053 252.506 87.122C252.227 87.426 252.025 87.7807 251.898 88.186V94H249.352V84.044H251.651V85.887C251.904 85.4563 252.227 85.0953 252.62 84.804C253.013 84.5 253.462 84.272 253.969 84.12C254.488 83.9553 255.033 83.873 255.603 83.873C256.224 83.873 256.73 83.987 257.123 84.215C257.528 84.4303 257.832 84.728 258.035 85.108C258.25 85.4753 258.396 85.8933 258.472 86.362C258.561 86.8307 258.605 87.3057 258.605 87.787V94ZM265.056 89.022C265.056 88.0593 265.246 87.1917 265.626 86.419C266.006 85.6337 266.531 85.013 267.203 84.557C267.874 84.101 268.64 83.873 269.502 83.873C270.236 83.873 270.895 84.0567 271.478 84.424C272.073 84.7787 272.535 85.2347 272.865 85.792V80.13H275.411V91.15C275.411 91.416 275.455 91.606 275.544 91.72C275.632 91.834 275.784 91.9037 276 91.929V94C275.556 94.0887 275.195 94.133 274.917 94.133C274.461 94.133 274.081 94.019 273.777 93.791C273.485 93.563 273.321 93.2653 273.283 92.898L273.245 92.271C272.877 92.8917 272.377 93.3667 271.744 93.696C271.123 94.0253 270.471 94.19 269.787 94.19C269.103 94.19 268.469 94.057 267.887 93.791C267.317 93.525 266.816 93.1577 266.386 92.689C265.968 92.2203 265.638 91.6757 265.398 91.055C265.17 90.4217 265.056 89.744 265.056 89.022ZM272.865 90.352V87.977C272.738 87.6097 272.535 87.2803 272.257 86.989C271.978 86.6977 271.668 86.4697 271.326 86.305C270.984 86.1277 270.642 86.039 270.3 86.039C269.907 86.039 269.552 86.1213 269.236 86.286C268.919 86.4507 268.64 86.6723 268.4 86.951C268.172 87.2297 267.994 87.5527 267.868 87.92C267.754 88.2873 267.697 88.6737 267.697 89.079C267.697 89.4843 267.76 89.8707 267.887 90.238C268.026 90.5927 268.222 90.903 268.476 91.169C268.729 91.435 269.02 91.644 269.35 91.796C269.692 91.948 270.059 92.024 270.452 92.024C270.692 92.024 270.933 91.986 271.174 91.91C271.427 91.8213 271.661 91.7073 271.877 91.568C272.105 91.416 272.301 91.2387 272.466 91.036C272.643 90.8207 272.776 90.5927 272.865 90.352ZM282.736 80.13H285.282V90.808C285.282 91.264 285.358 91.5743 285.51 91.739C285.662 91.891 285.871 91.967 286.137 91.967C286.339 91.967 286.548 91.9417 286.764 91.891C286.979 91.8403 287.169 91.777 287.334 91.701L287.676 93.639C287.334 93.8037 286.935 93.9303 286.479 94.019C286.023 94.1077 285.611 94.152 285.244 94.152C284.446 94.152 283.825 93.943 283.382 93.525C282.951 93.0943 282.736 92.4863 282.736 91.701V80.13ZM293.63 94V84.044H296.176V94H293.63ZM293.63 82.657V80.13H296.176V82.657H293.63ZM312.571 94H310.025V88.414C310.025 87.616 309.886 87.0333 309.607 86.666C309.328 86.2987 308.942 86.115 308.448 86.115C308.106 86.115 307.758 86.2037 307.403 86.381C307.061 86.5583 306.751 86.8053 306.472 87.122C306.193 87.426 305.991 87.7807 305.864 88.186V94H303.318V84.044H305.617V85.887C305.87 85.4563 306.193 85.0953 306.586 84.804C306.979 84.5 307.428 84.272 307.935 84.12C308.454 83.9553 308.999 83.873 309.569 83.873C310.19 83.873 310.696 83.987 311.089 84.215C311.494 84.4303 311.798 84.728 312.001 85.108C312.216 85.4753 312.362 85.8933 312.438 86.362C312.527 86.8307 312.571 87.3057 312.571 87.787V94ZM324.247 94.19C323.449 94.19 322.727 94.057 322.081 93.791C321.435 93.5123 320.884 93.1387 320.428 92.67C319.972 92.1887 319.617 91.644 319.364 91.036C319.123 90.4153 319.003 89.763 319.003 89.079C319.003 88.129 319.212 87.2613 319.63 86.476C320.06 85.6907 320.668 85.0637 321.454 84.595C322.252 84.1137 323.189 83.873 324.266 83.873C325.355 83.873 326.286 84.1137 327.059 84.595C327.831 85.0637 328.42 85.6907 328.826 86.476C329.244 87.2487 329.453 88.0847 329.453 88.984C329.453 89.136 329.446 89.2943 329.434 89.459C329.421 89.611 329.408 89.7377 329.396 89.839H321.701C321.751 90.3457 321.897 90.789 322.138 91.169C322.391 91.549 322.708 91.8403 323.088 92.043C323.48 92.233 323.898 92.328 324.342 92.328C324.848 92.328 325.323 92.2077 325.767 91.967C326.223 91.7137 326.533 91.3843 326.698 90.979L328.883 91.587C328.642 92.0937 328.294 92.5433 327.838 92.936C327.394 93.3287 326.869 93.639 326.261 93.867C325.653 94.0823 324.981 94.19 324.247 94.19ZM321.644 88.224H326.85C326.799 87.7173 326.653 87.2803 326.413 86.913C326.185 86.533 325.881 86.2417 325.501 86.039C325.121 85.8237 324.696 85.716 324.228 85.716C323.772 85.716 323.354 85.8237 322.974 86.039C322.606 86.2417 322.302 86.533 322.062 86.913C321.834 87.2803 321.694 87.7173 321.644 88.224ZM348.578 80.51H351.238L356.197 94H353.499L352.245 90.637H347.533L346.298 94H343.6L348.578 80.51ZM351.77 88.794L349.908 83.227L347.97 88.794H351.77ZM367.703 94.095C366.626 94.095 365.708 93.9177 364.948 93.563C364.201 93.1957 363.593 92.6953 363.124 92.062C362.668 91.4287 362.332 90.713 362.117 89.915C361.902 89.1043 361.794 88.262 361.794 87.388V80.51H364.416V87.388C364.416 87.9453 364.467 88.49 364.568 89.022C364.682 89.5413 364.866 90.01 365.119 90.428C365.372 90.846 365.708 91.1753 366.126 91.416C366.544 91.6567 367.063 91.777 367.684 91.777C368.317 91.777 368.843 91.6567 369.261 91.416C369.692 91.1627 370.027 90.827 370.268 90.409C370.521 89.991 370.705 89.5223 370.819 89.003C370.933 88.471 370.99 87.9327 370.99 87.388V80.51H373.593V87.388C373.593 88.3127 373.479 89.1803 373.251 89.991C373.036 90.8017 372.687 91.5173 372.206 92.138C371.737 92.746 371.129 93.2273 370.382 93.582C369.635 93.924 368.742 94.095 367.703 94.095Z" fill="white"/>
<path d="M-189 -100L801.894 -47.4829L1773 -8.47016V1045H-189V-100Z" fill="url(#paint0_linear_876_136)"/>
<g style="mix-blend-mode:luminosity">
<path d="M1773.04 1045.13C1773.04 527.94 1772.33 875.98 1713.28 840.59C1639.46 796.352 1559.49 716.577 1532.89 683.973C1446.46 578.023 1289.64 799.717 1208.64 791.501C1127.64 783.285 1162.72 641.897 995.614 630.209C828.51 618.521 847.323 757.606 754.918 630.209C662.513 502.812 513.584 589.065 481.576 483.527C465.796 431.499 543.869 343.67 623.832 285.098C690.193 352.336 753.976 386.136 776.5 268C790.311 195.566 706.072 224.858 623.832 285.098C551.725 212.039 476.574 99.5 448 99.5L416.283 1045.13H1773.04Z" fill="url(#paint1_linear_876_136)"/>
</g>
<g style="mix-blend-mode:luminosity">
<path d="M319.455 1542.14C314.262 756.876 774.153 1422.63 743.028 1335.12C693.867 1196.9 643.474 1081.37 595.409 984.803C547.85 1052.98 540.616 1137.38 474.439 1145.55C407.607 1153.8 410.058 843.847 394.132 647.119C340.324 569.525 311.054 530.647 324.962 510.865C367.962 449.709 384.445 527.475 394.132 647.119C444.706 720.049 516.957 827.18 595.409 984.803C625.09 942.251 670.478 906.015 755.702 898.567C977.482 879.184 953.897 1090.55 1075.32 896.209C1170.25 744.286 1322.77 932.873 1522.86 1011.89L1516.56 500.257C1503.63 488.494 1490.53 477.574 1477.36 467.659C1364.94 545.676 1112.95 844.961 1137.91 689.462C1189.12 370.518 1337.41 362.303 1477.36 467.659C1493.51 456.448 1506.78 449.807 1515.94 449.739L1516.56 500.257C1707.35 673.746 1862.94 1030.31 1701.36 1042.65C1638.3 1047.46 1578.73 1033.94 1522.86 1011.89L1529.16 1522.88L319.455 1542.14Z" fill="url(#paint2_linear_876_136)"/>
</g>
<g style="mix-blend-mode:soft-light">
<path d="M2.54199 1029.18C-1.23921 457.416 364.457 943.08 456.776 903.272C507.137 881.556 420.965 766.683 311.281 641.076C270.469 686.427 255.317 734.474 186.703 739.89C112.287 745.764 111.431 545.466 96.3096 402.533C38.2932 336.69 0.675899 288.293 12.1292 278.25C67.8658 229.377 85.6393 301.673 96.3096 402.533C156.652 471.017 239.063 558.373 311.281 641.076C345.965 602.533 399.183 565.938 519.501 559.113C781.394 544.26 752.916 698.24 896.853 556.33C1040.79 414.42 747.76 946.517 1088.94 929.484C1284.35 919.729 1267.36 560.087 1188.53 362.898C1070.55 425.238 958.311 454.992 971.366 405.58C1036.49 159.09 1129.72 215.782 1188.53 362.898C1238.64 336.418 1289.79 304.058 1332.81 269.388L1297.37 1.05207C1510.82 55.488 1454.13 171.621 1332.81 269.388L1430.78 1011.12L2.54199 1029.18Z" fill="url(#paint3_linear_876_136)"/>
</g>
<g style="mix-blend-mode:soft-light">
<path d="M-3.83181 1029.18C-7.57758 462.774 361.727 943.835 454.978 904.387C505.847 882.868 418.824 769.083 308.056 644.668C266.829 689.6 251.519 737.199 182.215 742.575C107.051 748.404 106.212 549.982 90.9574 408.392C32.3671 343.173 -5.62155 295.235 5.94797 285.284C62.2503 236.862 80.193 308.477 90.9574 408.392C151.897 476.225 235.123 562.751 308.056 644.668C343.093 606.481 396.85 570.221 518.377 563.444C782.9 548.692 754.117 701.234 899.517 560.632C1044.92 420.031 748.877 947.185 1093.49 930.263C1296.01 920.318 1272.7 545.458 1187.78 354.007C1068.3 422.149 955.74 481.995 974.797 411.284C1038.3 175.642 1128.21 219.68 1187.78 354.007C1285.23 298.434 1387.29 237.342 1426.32 237.054L1438.75 1011.08L-3.83181 1029.18Z" fill="url(#paint4_linear_876_136)"/>
<path d="M-3.83181 1029.18C-7.57758 462.774 361.727 943.835 454.978 904.387C571.542 855.077 -35.9312 321.302 5.94797 285.284C142.038 168.241 54.0113 752.518 182.215 742.575C310.418 732.631 253.854 578.196 518.377 563.444C782.9 548.692 754.117 701.234 899.517 560.632C1044.92 420.031 748.877 947.185 1093.49 930.263C1438.1 913.341 1128.82 -160.209 974.797 411.284C940.198 539.665 1339.43 237.695 1426.32 237.054L1438.75 1011.08L-3.83181 1029.18Z" stroke="white"/>
</g>
<g style="mix-blend-mode:soft-light">
<path d="M1121.18 633.836C1060.66 761.525 974.593 862.973 859.981 865.878C684.792 870.318 900.383 744.325 1121.18 633.836C1158.24 555.652 1185.72 467.631 1204.31 386.368C1069.84 341.57 905.058 286.495 765.27 239.239C766.465 243.002 767.696 246.715 768.959 250.371C837.267 275.534 877.755 304.694 860.492 331.749C833.157 374.587 794.497 324.286 768.959 250.371C758.644 246.571 747.693 242.862 736.212 239.265C730.601 241.528 724.996 243.799 719.398 246.074C640.885 292.674 564.802 335.542 545.005 367.317C518.127 410.459 433.593 491.739 372.585 565.463C406.16 646.752 420.608 727.675 349.714 719.541C271.19 710.532 309.184 642.078 372.585 565.463C347.98 505.893 313.104 446.127 294.016 421.067C286.96 422.785 282.938 422.881 282.37 421.094C276.768 403.48 282.538 406 294.016 421.067C341.375 409.535 525.428 324.915 719.398 246.074C723.82 243.449 728.249 240.813 732.677 238.166C633.588 207.611 496.424 185.414 385.625 184.714C329.309 255.601 278.463 372.156 240.163 332.343C134.15 222.143 235.775 183.768 385.625 184.714C413.607 149.493 442.939 125.546 472.755 137.657C500.874 149.079 608.579 186.196 743.283 231.801C748.887 228.423 754.476 225.03 760.03 221.625C726.576 101.167 730.994 -54.1811 860.805 4.49754C990.667 63.1993 884.104 145.547 760.03 221.625C760.706 224.06 761.397 226.48 762.104 228.884C958.154 150.791 1154.85 84.4053 1222.84 110.193C1242.4 117.61 1237.53 241.205 1204.31 386.368C1352.88 435.859 1464.44 472.806 1464.44 472.806C1464.44 472.806 1291.27 548.721 1121.18 633.836Z" fill="#00BCEF"/>
</g>
</g>
<defs>
<linearGradient id="paint0_linear_876_136" x1="792.494" y1="1.53311" x2="792.494" y2="629.738" gradientUnits="userSpaceOnUse">
<stop offset="0.01" stop-color="#05A3CD"/>
<stop offset="0.423647" stop-color="#00C6FA"/>
<stop offset="1" stop-color="#05A3CD"/>
</linearGradient>
<linearGradient id="paint1_linear_876_136" x1="1094.66" y1="270.836" x2="1094.66" y2="1027.34" gradientUnits="userSpaceOnUse">
<stop stop-color="#30AAF5"/>
<stop offset="0.5" stop-color="#5EBBF4"/>
<stop offset="0.675" stop-color="#33A1E4"/>
<stop offset="1" stop-color="#0071B7"/>
</linearGradient>
<linearGradient id="paint2_linear_876_136" x1="926.883" y1="1477.23" x2="917.28" y2="789.641" gradientUnits="userSpaceOnUse">
<stop stop-color="white"/>
<stop offset="0.51" stop-color="#9EB4F8"/>
<stop offset="1" stop-color="#6686E3"/>
</linearGradient>
<linearGradient id="paint3_linear_876_136" x1="719.123" y1="189.872" x2="725.134" y2="1004.69" gradientUnits="userSpaceOnUse">
<stop stop-color="#30AAF5"/>
<stop offset="0.5" stop-color="#5EBBF4"/>
<stop offset="0.675" stop-color="#33A1E4"/>
<stop offset="1" stop-color="#0071B7"/>
</linearGradient>
<linearGradient id="paint4_linear_876_136" x1="713.25" y1="383.926" x2="717.861" y2="1009.16" gradientUnits="userSpaceOnUse">
<stop stop-color="#30AAF5"/>
<stop offset="0.5" stop-color="#5EBBF4"/>
<stop offset="0.675" stop-color="#33A1E4"/>
<stop offset="1" stop-color="#0071B7"/>
</linearGradient>
<clipPath id="clip0_876_136">
<rect width="1445" height="1000" fill="white"/>
</clipPath>
</defs>
</svg>
