<svg width="149" height="47" viewBox="0 0 149 47" fill="none" xmlns="http://www.w3.org/2000/svg">
<path d="M1 18.7551C18.5 17.8026 38.45 -0.296033 44.05 2.24412C48.25 4.14924 39.15 11.4522 40.55 15.8974C41.95 20.3427 48.6 19.0726 52.45 17.8026C56.3 16.5325 68.1081 9.54705 74.15 9.54705C80.45 9.54705 90.25 16.28 95.85 16.5975C101.45 16.915 110.9 21.2953 148 6.05434" stroke="#0BB7C0" stroke-width="3"/>
<path d="M17.448 44V36.544L14.536 42.096H13.304L10.392 36.544V44H8.184V32.64H10.552L13.912 39.104L17.304 32.64H19.656V44H17.448ZM25.5798 44V35.616H27.7238V44H25.5798ZM25.5798 34.448V32.32H27.7238V34.448H25.5798ZM41.2099 44H39.0659V39.296C39.0659 38.624 38.9485 38.1333 38.7139 37.824C38.4792 37.5147 38.1539 37.36 37.7379 37.36C37.4499 37.36 37.1565 37.4347 36.8579 37.584C36.5699 37.7333 36.3085 37.9413 36.0739 38.208C35.8392 38.464 35.6685 38.7627 35.5619 39.104V44H33.4179V35.616H35.3539V37.168C35.5672 36.8053 35.8392 36.5013 36.1699 36.256C36.5005 36 36.8792 35.808 37.3059 35.68C37.7432 35.5413 38.2019 35.472 38.6819 35.472C39.2045 35.472 39.6312 35.568 39.9619 35.76C40.3032 35.9413 40.5592 36.192 40.7299 36.512C40.9112 36.8213 41.0339 37.1733 41.0979 37.568C41.1725 37.9627 41.2099 38.3627 41.2099 38.768V44ZM46.3221 39.808C46.3221 38.9973 46.4821 38.2667 46.8021 37.616C47.1221 36.9547 47.5648 36.432 48.1301 36.048C48.6955 35.664 49.3408 35.472 50.0661 35.472C50.6848 35.472 51.2395 35.6267 51.7301 35.936C52.2315 36.2347 52.6208 36.6187 52.8981 37.088V32.32H55.0421V41.6C55.0421 41.824 55.0795 41.984 55.1541 42.08C55.2288 42.176 55.3568 42.2347 55.5381 42.256V44C55.1648 44.0747 54.8608 44.112 54.6261 44.112C54.2421 44.112 53.9221 44.016 53.6661 43.824C53.4208 43.632 53.2821 43.3813 53.2501 43.072L53.2181 42.544C52.9088 43.0667 52.4875 43.4667 51.9541 43.744C51.4315 44.0213 50.8821 44.16 50.3061 44.16C49.7301 44.16 49.1968 44.048 48.7061 43.824C48.2261 43.6 47.8048 43.2907 47.4421 42.896C47.0901 42.5013 46.8128 42.0427 46.6101 41.52C46.4181 40.9867 46.3221 40.416 46.3221 39.808ZM52.8981 40.928V38.928C52.7915 38.6187 52.6208 38.3413 52.3861 38.096C52.1515 37.8507 51.8901 37.6587 51.6021 37.52C51.3141 37.3707 51.0261 37.296 50.7381 37.296C50.4075 37.296 50.1088 37.3653 49.8421 37.504C49.5755 37.6427 49.3408 37.8293 49.1381 38.064C48.9461 38.2987 48.7968 38.5707 48.6901 38.88C48.5941 39.1893 48.5461 39.5147 48.5461 39.856C48.5461 40.1973 48.5995 40.5227 48.7061 40.832C48.8235 41.1307 48.9888 41.392 49.2021 41.616C49.4155 41.84 49.6608 42.016 49.9381 42.144C50.2261 42.272 50.5355 42.336 50.8661 42.336C51.0688 42.336 51.2715 42.304 51.4741 42.24C51.6875 42.1653 51.8848 42.0693 52.0661 41.952C52.2581 41.824 52.4235 41.6747 52.5621 41.504C52.7115 41.3227 52.8235 41.1307 52.8981 40.928ZM60.8906 32.32H63.0346V41.312C63.0346 41.696 63.0986 41.9573 63.2266 42.096C63.3546 42.224 63.5306 42.288 63.7546 42.288C63.9253 42.288 64.1013 42.2667 64.2826 42.224C64.464 42.1813 64.624 42.128 64.7626 42.064L65.0506 43.696C64.7626 43.8347 64.4266 43.9413 64.0426 44.016C63.6586 44.0907 63.312 44.128 63.0026 44.128C62.3306 44.128 61.808 43.952 61.4346 43.6C61.072 43.2373 60.8906 42.7253 60.8906 42.064V32.32ZM69.7447 44V35.616H71.8887V44H69.7447ZM69.7447 34.448V32.32H71.8887V34.448H69.7447ZM85.3749 44H83.2309V39.296C83.2309 38.624 83.1135 38.1333 82.8789 37.824C82.6442 37.5147 82.3189 37.36 81.9029 37.36C81.6149 37.36 81.3215 37.4347 81.0229 37.584C80.7349 37.7333 80.4735 37.9413 80.2389 38.208C80.0042 38.464 79.8335 38.7627 79.7269 39.104V44H77.5829V35.616H79.5189V37.168C79.7322 36.8053 80.0042 36.5013 80.3349 36.256C80.6655 36 81.0442 35.808 81.4709 35.68C81.9082 35.5413 82.3669 35.472 82.8469 35.472C83.3695 35.472 83.7962 35.568 84.1269 35.76C84.4682 35.9413 84.7242 36.192 84.8949 36.512C85.0762 36.8213 85.1989 37.1733 85.2629 37.568C85.3375 37.9627 85.3749 38.3627 85.3749 38.768V44ZM94.8871 44.16C94.2151 44.16 93.6071 44.048 93.0631 43.824C92.5191 43.5893 92.0551 43.2747 91.6711 42.88C91.2871 42.4747 90.9885 42.016 90.7751 41.504C90.5725 40.9813 90.4711 40.432 90.4711 39.856C90.4711 39.056 90.6471 38.3253 90.9991 37.664C91.3618 37.0027 91.8738 36.4747 92.5351 36.08C93.2071 35.6747 93.9965 35.472 94.9031 35.472C95.8205 35.472 96.6045 35.6747 97.2551 36.08C97.9058 36.4747 98.4018 37.0027 98.7431 37.664C99.0951 38.3147 99.2711 39.0187 99.2711 39.776C99.2711 39.904 99.2658 40.0373 99.2551 40.176C99.2445 40.304 99.2338 40.4107 99.2231 40.496H92.7431C92.7858 40.9227 92.9085 41.296 93.1111 41.616C93.3245 41.936 93.5911 42.1813 93.9111 42.352C94.2418 42.512 94.5938 42.592 94.9671 42.592C95.3938 42.592 95.7938 42.4907 96.1671 42.288C96.5511 42.0747 96.8125 41.7973 96.9511 41.456L98.7911 41.968C98.5885 42.3947 98.2951 42.7733 97.9111 43.104C97.5378 43.4347 97.0951 43.696 96.5831 43.888C96.0711 44.0693 95.5058 44.16 94.8871 44.16ZM92.6951 39.136H97.0791C97.0365 38.7093 96.9138 38.3413 96.7111 38.032C96.5191 37.712 96.2631 37.4667 95.9431 37.296C95.6231 37.1147 95.2658 37.024 94.8711 37.024C94.4871 37.024 94.1351 37.1147 93.8151 37.296C93.5058 37.4667 93.2498 37.712 93.0471 38.032C92.8551 38.3413 92.7378 38.7093 92.6951 39.136ZM114.737 32.64H116.977L121.153 44H118.881L117.825 41.168H113.857L112.817 44H110.545L114.737 32.64ZM117.425 39.616L115.857 34.928L114.225 39.616H117.425ZM130.522 44.08C129.615 44.08 128.842 43.9307 128.202 43.632C127.573 43.3227 127.061 42.9013 126.666 42.368C126.282 41.8347 125.999 41.232 125.818 40.56C125.637 39.8773 125.546 39.168 125.546 38.432V32.64H127.754V38.432C127.754 38.9013 127.797 39.36 127.882 39.808C127.978 40.2453 128.133 40.64 128.346 40.992C128.559 41.344 128.842 41.6213 129.194 41.824C129.546 42.0267 129.983 42.128 130.506 42.128C131.039 42.128 131.482 42.0267 131.834 41.824C132.197 41.6107 132.479 41.328 132.682 40.976C132.895 40.624 133.05 40.2293 133.146 39.792C133.242 39.344 133.29 38.8907 133.29 38.432V32.64H135.482V38.432C135.482 39.2107 135.386 39.9413 135.194 40.624C135.013 41.3067 134.719 41.9093 134.314 42.432C133.919 42.944 133.407 43.3493 132.778 43.648C132.149 43.936 131.397 44.08 130.522 44.08Z" fill="#085966"/>
</svg>
