<svg width="127" height="40" viewBox="0 0 139 52" fill="none" xmlns="http://www.w3.org/2000/svg">
<path d="M1 19.2127C17.3095 18.2341 35.9024 -0.35874 41.1214 2.25079C45.0357 4.20794 36.5548 11.7103 37.8595 16.277C39.1643 20.8437 45.3619 19.5389 48.95 18.2341C52.5381 16.9294 63.5429 9.75317 69.1738 9.75317C75.0452 9.75317 84.1786 16.67 89.3976 16.9962C94.6167 17.3224 103.424 21.8222 138 6.16507" stroke="white" stroke-width="3"/>
<path d="M13.448 44.8844V37.4284L10.536 42.9804H9.304L6.392 37.4284V44.8844H4.184V33.5244H6.552L9.912 39.9884L13.304 33.5244H15.656V44.8844H13.448ZM21.8997 44.8844V36.5004H24.0438V44.8844H21.8997ZM21.8997 35.3324V33.2044H24.0438V35.3324H21.8997ZM37.8499 44.8844H35.7059V40.1804C35.7059 39.5084 35.5885 39.0177 35.3539 38.7084C35.1192 38.3991 34.7939 38.2444 34.3779 38.2444C34.0899 38.2444 33.7965 38.3191 33.4979 38.4684C33.2099 38.6177 32.9485 38.8257 32.7139 39.0924C32.4792 39.3484 32.3085 39.6471 32.2019 39.9884V44.8844H30.0579V36.5004H31.9939V38.0524C32.2072 37.6897 32.4792 37.3857 32.8099 37.1404C33.1405 36.8844 33.5192 36.6924 33.9459 36.5644C34.3832 36.4257 34.8419 36.3564 35.3219 36.3564C35.8445 36.3564 36.2712 36.4524 36.6019 36.6444C36.9432 36.8257 37.1992 37.0764 37.3699 37.3964C37.5512 37.7057 37.6739 38.0577 37.7379 38.4524C37.8125 38.8471 37.8499 39.2471 37.8499 39.6524V44.8844ZM43.2821 40.6924C43.2821 39.8817 43.4421 39.1511 43.7621 38.5004C44.0821 37.8391 44.5248 37.3164 45.0901 36.9324C45.6555 36.5484 46.3008 36.3564 47.0261 36.3564C47.6448 36.3564 48.1995 36.5111 48.6901 36.8204C49.1915 37.1191 49.5808 37.5031 49.8581 37.9724V33.2044H52.0021V42.4844C52.0021 42.7084 52.0395 42.8684 52.1141 42.9644C52.1888 43.0604 52.3168 43.1191 52.4981 43.1404V44.8844C52.1248 44.9591 51.8208 44.9964 51.5861 44.9964C51.2021 44.9964 50.8821 44.9004 50.6261 44.7084C50.3808 44.5164 50.2421 44.2657 50.2101 43.9564L50.1781 43.4284C49.8688 43.9511 49.4475 44.3511 48.9141 44.6284C48.3915 44.9057 47.8421 45.0444 47.2661 45.0444C46.6901 45.0444 46.1568 44.9324 45.6661 44.7084C45.1861 44.4844 44.7648 44.1751 44.4021 43.7804C44.0501 43.3857 43.7728 42.9271 43.5701 42.4044C43.3781 41.8711 43.2821 41.3004 43.2821 40.6924ZM49.8581 41.8124V39.8124C49.7515 39.5031 49.5808 39.2257 49.3461 38.9804C49.1115 38.7351 48.8501 38.5431 48.5621 38.4044C48.2741 38.2551 47.9861 38.1804 47.6981 38.1804C47.3675 38.1804 47.0688 38.2497 46.8021 38.3884C46.5355 38.5271 46.3008 38.7137 46.0981 38.9484C45.9061 39.1831 45.7568 39.4551 45.6501 39.7644C45.5541 40.0737 45.5061 40.3991 45.5061 40.7404C45.5061 41.0817 45.5595 41.4071 45.6661 41.7164C45.7835 42.0151 45.9488 42.2764 46.1621 42.5004C46.3755 42.7244 46.6208 42.9004 46.8981 43.0284C47.1861 43.1564 47.4955 43.2204 47.8261 43.2204C48.0288 43.2204 48.2315 43.1884 48.4341 43.1244C48.6475 43.0497 48.8448 42.9537 49.0261 42.8364C49.2181 42.7084 49.3835 42.5591 49.5221 42.3884C49.6715 42.2071 49.7835 42.0151 49.8581 41.8124ZM58.1706 33.2044H60.3146V42.1964C60.3146 42.5804 60.3786 42.8417 60.5066 42.9804C60.6346 43.1084 60.8106 43.1724 61.0346 43.1724C61.2053 43.1724 61.3813 43.1511 61.5626 43.1084C61.744 43.0657 61.904 43.0124 62.0426 42.9484L62.3306 44.5804C62.0426 44.7191 61.7066 44.8257 61.3226 44.9004C60.9386 44.9751 60.592 45.0124 60.2826 45.0124C59.6106 45.0124 59.088 44.8364 58.7146 44.4844C58.352 44.1217 58.1706 43.6097 58.1706 42.9484V33.2044ZM67.3448 44.8844V36.5004H69.4888V44.8844H67.3448ZM67.3448 35.3324V33.2044H69.4888V35.3324H67.3448ZM83.2949 44.8844H81.1509V40.1804C81.1509 39.5084 81.0335 39.0177 80.7989 38.7084C80.5642 38.3991 80.2389 38.2444 79.8229 38.2444C79.5349 38.2444 79.2415 38.3191 78.9429 38.4684C78.6549 38.6177 78.3935 38.8257 78.1589 39.0924C77.9242 39.3484 77.7535 39.6471 77.6469 39.9884V44.8844H75.5029V36.5004H77.4389V38.0524C77.6522 37.6897 77.9242 37.3857 78.2549 37.1404C78.5855 36.8844 78.9642 36.6924 79.3909 36.5644C79.8282 36.4257 80.2869 36.3564 80.7669 36.3564C81.2895 36.3564 81.7162 36.4524 82.0469 36.6444C82.3882 36.8257 82.6442 37.0764 82.8149 37.3964C82.9962 37.7057 83.1189 38.0577 83.1829 38.4524C83.2575 38.8471 83.2949 39.2471 83.2949 39.6524V44.8844ZM93.1271 45.0444C92.4551 45.0444 91.8471 44.9324 91.3031 44.7084C90.7591 44.4737 90.2951 44.1591 89.9111 43.7644C89.5271 43.3591 89.2285 42.9004 89.0151 42.3884C88.8125 41.8657 88.7111 41.3164 88.7111 40.7404C88.7111 39.9404 88.8871 39.2097 89.2391 38.5484C89.6018 37.8871 90.1138 37.3591 90.7751 36.9644C91.4471 36.5591 92.2365 36.3564 93.1431 36.3564C94.0605 36.3564 94.8445 36.5591 95.4951 36.9644C96.1458 37.3591 96.6418 37.8871 96.9831 38.5484C97.3351 39.1991 97.5111 39.9031 97.5111 40.6604C97.5111 40.7884 97.5058 40.9217 97.4951 41.0604C97.4845 41.1884 97.4738 41.2951 97.4631 41.3804H90.9831C91.0258 41.8071 91.1485 42.1804 91.3511 42.5004C91.5645 42.8204 91.8311 43.0657 92.1511 43.2364C92.4818 43.3964 92.8338 43.4764 93.2071 43.4764C93.6338 43.4764 94.0338 43.3751 94.4071 43.1724C94.7911 42.9591 95.0525 42.6817 95.1911 42.3404L97.0311 42.8524C96.8285 43.2791 96.5351 43.6577 96.1511 43.9884C95.7778 44.3191 95.3351 44.5804 94.8231 44.7724C94.3111 44.9537 93.7458 45.0444 93.1271 45.0444ZM90.9351 40.0204H95.3191C95.2765 39.5937 95.1538 39.2257 94.9511 38.9164C94.7591 38.5964 94.5031 38.3511 94.1831 38.1804C93.8631 37.9991 93.5058 37.9084 93.1111 37.9084C92.7271 37.9084 92.3751 37.9991 92.0551 38.1804C91.7458 38.3511 91.4898 38.5964 91.2871 38.9164C91.0951 39.2257 90.9778 39.5937 90.9351 40.0204ZM113.617 33.5244H115.857L120.033 44.8844H117.761L116.705 42.0524H112.737L111.697 44.8844H109.425L113.617 33.5244ZM116.305 40.5004L114.737 35.8124L113.105 40.5004H116.305ZM129.722 44.9644C128.815 44.9644 128.042 44.8151 127.402 44.5164C126.773 44.2071 126.261 43.7857 125.866 43.2524C125.482 42.7191 125.199 42.1164 125.018 41.4444C124.837 40.7617 124.746 40.0524 124.746 39.3164V33.5244H126.954V39.3164C126.954 39.7857 126.997 40.2444 127.082 40.6924C127.178 41.1297 127.333 41.5244 127.546 41.8764C127.759 42.2284 128.042 42.5057 128.394 42.7084C128.746 42.9111 129.183 43.0124 129.706 43.0124C130.239 43.0124 130.682 42.9111 131.034 42.7084C131.397 42.4951 131.679 42.2124 131.882 41.8604C132.095 41.5084 132.25 41.1137 132.346 40.6764C132.442 40.2284 132.49 39.7751 132.49 39.3164V33.5244H134.682V39.3164C134.682 40.0951 134.586 40.8257 134.394 41.5084C134.213 42.1911 133.919 42.7937 133.514 43.3164C133.119 43.8284 132.607 44.2337 131.978 44.5324C131.349 44.8204 130.597 44.9644 129.722 44.9644Z" fill="white"/>
</svg>
