<svg width="1440" height="1024" viewBox="0 0 1440 1024" fill="none" xmlns="http://www.w3.org/2000/svg">
<g clip-path="url(#clip0_876_136)">
<rect width="1440" height="1024" fill="white"/>
<path d="M204.627 60.5967C227.008 59.0277 252.522 29.2183 259.684 33.4021C265.056 36.5399 253.417 48.5683 255.208 55.8899C256.998 63.2115 265.503 61.1196 270.427 59.0277C275.351 56.9359 290.452 45.4304 298.179 45.4304C306.236 45.4304 318.77 56.52 325.932 57.0429C333.094 57.5659 345.179 64.7804 392.627 39.6777" stroke="white" stroke-width="4"/>
<path d="M229.034 94V85.146L225.576 91.739H224.113L220.655 85.146V94H218.033V80.51H220.845L224.835 88.186L228.863 80.51H231.656V94H229.034ZM239.317 94V80.51H241.939V94H239.317ZM258.605 94H256.059V88.414C256.059 87.616 255.92 87.0333 255.641 86.666C255.362 86.2987 254.976 86.115 254.482 86.115C254.14 86.115 253.792 86.2037 253.437 86.381C253.095 86.5583 252.785 86.8053 252.506 87.122C252.227 87.426 252.025 87.7807 251.898 88.186V94H249.352V84.044H251.651V85.887C251.904 85.4563 252.227 85.0953 252.62 84.804C253.013 84.5 253.462 84.272 253.969 84.12C254.488 83.9553 255.033 83.873 255.603 83.873C256.224 83.873 256.73 83.987 257.123 84.215C257.528 84.4303 257.832 84.728 258.035 85.108C258.25 85.4753 258.396 85.8933 258.472 86.362C258.561 86.8307 258.605 87.3057 258.605 87.787V94ZM265.056 89.022C265.056 88.0593 265.246 87.1917 265.626 86.419C266.006 85.6337 266.531 85.013 267.203 84.557C267.874 84.101 268.64 83.873 269.502 83.873C270.236 83.873 270.895 84.0567 271.478 84.424C272.073 84.7787 272.535 85.2347 272.865 85.792V80.13H275.411V91.15C275.411 91.416 275.455 91.606 275.544 91.72C275.632 91.834 275.784 91.9037 276 91.929V94C275.556 94.0887 275.195 94.133 274.917 94.133C274.461 94.133 274.081 94.019 273.777 93.791C273.485 93.563 273.321 93.2653 273.283 92.898L273.245 92.271C272.877 92.8917 272.377 93.3667 271.744 93.696C271.123 94.0253 270.471 94.19 269.787 94.19C269.103 94.19 268.469 94.057 267.887 93.791C267.317 93.525 266.816 93.1577 266.386 92.689C265.968 92.2203 265.638 91.6757 265.398 91.055C265.17 90.4217 265.056 89.744 265.056 89.022ZM272.865 90.352V87.977C272.738 87.6097 272.535 87.2803 272.257 86.989C271.978 86.6977 271.668 86.4697 271.326 86.305C270.984 86.1277 270.642 86.039 270.3 86.039C269.907 86.039 269.552 86.1213 269.236 86.286C268.919 86.4507 268.64 86.6723 268.4 86.951C268.172 87.2297 267.994 87.5527 267.868 87.92C267.754 88.2873 267.697 88.6737 267.697 89.079C267.697 89.4843 267.76 89.8707 267.887 90.238C268.026 90.5927 268.222 90.903 268.476 91.169C268.729 91.435 269.02 91.644 269.35 91.796C269.692 91.948 270.059 92.024 270.452 92.024C270.692 92.024 270.933 91.986 271.174 91.91C271.427 91.8213 271.661 91.7073 271.877 91.568C272.105 91.416 272.301 91.2387 272.466 91.036C272.643 90.8207 272.776 90.5927 272.865 90.352ZM282.736 80.13H285.282V90.808C285.282 91.264 285.358 91.5743 285.51 91.739C285.662 91.891 285.871 91.967 286.137 91.967C286.339 91.967 286.548 91.9417 286.764 91.891C286.979 91.8403 287.169 91.777 287.334 91.701L287.676 93.639C287.334 93.8037 286.935 93.9303 286.479 94.019C286.023 94.1077 285.611 94.152 285.244 94.152C284.446 94.152 283.825 93.943 283.382 93.525C282.951 93.0943 282.736 92.4863 282.736 91.701V80.13ZM293.63 94V84.044H296.176V94H293.63ZM293.63 82.657V80.13H296.176V82.657H293.63ZM312.571 94H310.025V88.414C310.025 87.616 309.886 87.0333 309.607 86.666C309.328 86.2987 308.942 86.115 308.448 86.115C308.106 86.115 307.758 86.2037 307.403 86.381C307.061 86.5583 306.751 86.8053 306.472 87.122C306.193 87.426 305.991 87.7807 305.864 88.186V94H303.318V84.044H305.617V85.887C305.87 85.4563 306.193 85.0953 306.586 84.804C306.979 84.5 307.428 84.272 307.935 84.12C308.454 83.9553 308.999 83.873 309.569 83.873C310.19 83.873 310.696 83.987 311.089 84.215C311.494 84.4303 311.798 84.728 312.001 85.108C312.216 85.4753 312.362 85.8933 312.438 86.362C312.527 86.8307 312.571 87.3057 312.571 87.787V94ZM324.247 94.19C323.449 94.19 322.727 94.057 322.081 93.791C321.435 93.5123 320.884 93.1387 320.428 92.67C319.972 92.1887 319.617 91.644 319.364 91.036C319.123 90.4153 319.003 89.763 319.003 89.079C319.003 88.129 319.212 87.2613 319.63 86.476C320.06 85.6907 320.668 85.0637 321.454 84.595C322.252 84.1137 323.189 83.873 324.266 83.873C325.355 83.873 326.286 84.1137 327.059 84.595C327.831 85.0637 328.42 85.6907 328.826 86.476C329.244 87.2487 329.453 88.0847 329.453 88.984C329.453 89.136 329.446 89.2943 329.434 89.459C329.421 89.611 329.408 89.7377 329.396 89.839H321.701C321.751 90.3457 321.897 90.789 322.138 91.169C322.391 91.549 322.708 91.8403 323.088 92.043C323.48 92.233 323.898 92.328 324.342 92.328C324.848 92.328 325.323 92.2077 325.767 91.967C326.223 91.7137 326.533 91.3843 326.698 90.979L328.883 91.587C328.642 92.0937 328.294 92.5433 327.838 92.936C327.394 93.3287 326.869 93.639 326.261 93.867C325.653 94.0823 324.981 94.19 324.247 94.19ZM321.644 88.224H326.85C326.799 87.7173 326.653 87.2803 326.413 86.913C326.185 86.533 325.881 86.2417 325.501 86.039C325.121 85.8237 324.696 85.716 324.228 85.716C323.772 85.716 323.354 85.8237 322.974 86.039C322.606 86.2417 322.302 86.533 322.062 86.913C321.834 87.2803 321.694 87.7173 321.644 88.224ZM348.578 80.51H351.238L356.197 94H353.499L352.245 90.637H347.533L346.298 94H343.6L348.578 80.51ZM351.77 88.794L349.908 83.227L347.97 88.794H351.77ZM367.703 94.095C366.626 94.095 365.708 93.9177 364.948 93.563C364.201 93.1957 363.593 92.6953 363.124 92.062C362.668 91.4287 362.332 90.713 362.117 89.915C361.902 89.1043 361.794 88.262 361.794 87.388V80.51H364.416V87.388C364.416 87.9453 364.467 88.49 364.568 89.022C364.682 89.5413 364.866 90.01 365.119 90.428C365.372 90.846 365.708 91.1753 366.126 91.416C366.544 91.6567 367.063 91.777 367.684 91.777C368.317 91.777 368.843 91.6567 369.261 91.416C369.692 91.1627 370.027 90.827 370.268 90.409C370.521 89.991 370.705 89.5223 370.819 89.003C370.933 88.471 370.99 87.9327 370.99 87.388V80.51H373.593V87.388C373.593 88.3127 373.479 89.1803 373.251 89.991C373.036 90.8017 372.687 91.5173 372.206 92.138C371.737 92.746 371.129 93.2273 370.382 93.582C369.635 93.924 368.742 94.095 367.703 94.095Z" fill="white"/>
<path d="M-189 -100L801.894 -47.4829L1773 -8.47016V1045H-189V-100Z" fill="url(#paint0_linear_876_136)"/>
<g style="mix-blend-mode:luminosity">
<path d="M1773.04 1045.13C1773.04 527.94 1772.33 875.98 1713.28 840.59C1639.46 796.352 1559.49 716.577 1532.89 683.973C1446.46 578.023 1289.64 799.717 1208.64 791.501C1127.64 783.285 1162.72 641.897 995.614 630.209C828.51 618.521 847.323 757.606 754.918 630.209C662.513 502.812 513.584 589.065 481.576 483.527C465.796 431.499 543.869 343.67 623.832 285.098C690.193 352.336 753.976 386.136 776.5 268C790.311 195.566 706.072 224.858 623.832 285.098C551.725 212.039 476.574 99.5 448 99.5L416.283 1045.13H1773.04Z" fill="url(#paint1_linear_876_136)"/>
</g>
<g style="mix-blend-mode:luminosity">
<path d="M319.455 1542.14C314.262 756.876 774.153 1422.63 743.028 1335.12C693.867 1196.9 643.474 1081.37 595.409 984.803C547.85 1052.98 540.616 1137.38 474.439 1145.55C407.607 1153.8 410.058 843.847 394.132 647.119C340.324 569.525 311.054 530.647 324.962 510.865C367.962 449.709 384.445 527.475 394.132 647.119C444.706 720.049 516.957 827.18 595.409 984.803C625.09 942.251 670.478 906.015 755.702 898.567C977.482 879.184 953.897 1090.55 1075.32 896.209C1170.25 744.286 1322.77 932.873 1522.86 1011.89L1516.56 500.257C1503.63 488.494 1490.53 477.574 1477.36 467.659C1364.94 545.676 1112.95 844.961 1137.91 689.462C1189.12 370.518 1337.41 362.303 1477.36 467.659C1493.51 456.448 1506.78 449.807 1515.94 449.739L1516.56 500.257C1707.35 673.746 1862.94 1030.31 1701.36 1042.65C1638.3 1047.46 1578.73 1033.94 1522.86 1011.89L1529.16 1522.88L319.455 1542.14Z" fill="url(#paint2_linear_876_136)"/>
</g>
<g style="mix-blend-mode:soft-light">
<path d="M2.54235 1029.18C-1.20342 462.773 368.101 943.834 461.352 904.386C512.221 882.867 425.199 769.083 314.43 644.668C273.203 689.6 257.893 737.199 188.589 742.574C113.425 748.404 112.586 549.982 97.3316 408.391C38.7413 343.173 0.752617 295.235 12.3221 285.284C68.6245 236.862 86.5672 308.477 97.3316 408.391C158.271 476.225 241.498 562.75 314.43 644.668C349.467 606.481 403.224 570.221 524.751 563.444C789.274 548.692 760.491 701.234 905.891 560.632C1051.29 420.031 755.252 947.185 1099.86 930.263C1297.23 920.571 1280.11 564.301 1200.52 368.971C1081.35 430.744 967.979 460.235 981.171 411.284C1046.98 167.095 1141.14 223.242 1200.52 368.971C1251.14 342.732 1302.81 310.668 1346.26 276.317L1310.5 10.5C1526.08 64.3954 1468.81 179.448 1346.26 276.317L1445.12 1011.08L2.54235 1029.18Z" fill="url(#paint3_linear_876_136)"/>
</g>
<g style="mix-blend-mode:soft-light">
<path d="M2.54124 1029.18C-1.20453 462.774 368.1 943.835 461.351 904.387C512.22 882.868 425.197 769.083 314.429 644.668C273.202 689.6 257.892 737.199 188.588 742.575C113.424 748.404 112.585 549.982 97.3305 408.392C38.7401 343.173 0.751499 295.235 12.321 285.284C68.6234 236.862 86.566 308.477 97.3305 408.392C158.27 476.225 241.497 562.751 314.429 644.668C349.466 606.481 403.223 570.221 524.75 563.444C789.273 548.692 760.49 701.234 905.89 560.632C1051.29 420.031 755.251 947.185 1099.86 930.263C1302.38 920.318 1279.07 545.458 1194.16 354.007C1074.67 422.149 962.113 481.995 981.17 411.284C1044.68 175.642 1134.58 219.68 1194.16 354.007C1291.61 298.434 1393.66 237.342 1432.69 237.054L1445.12 1011.08L2.54124 1029.18Z" fill="url(#paint4_linear_876_136)"/>
<path d="M2.54124 1029.18C-1.20453 462.774 368.1 943.835 461.351 904.387C577.915 855.077 -29.5581 321.302 12.321 285.284C148.411 168.241 60.3844 752.518 188.588 742.575C316.791 732.631 260.227 578.196 524.75 563.444C789.273 548.692 760.49 701.234 905.89 560.632C1051.29 420.031 755.251 947.185 1099.86 930.263C1444.47 913.341 1135.19 -160.209 981.17 411.284C946.571 539.665 1345.81 237.695 1432.69 237.054L1445.12 1011.08L2.54124 1029.18Z" stroke="white"/>
</g>
<g style="mix-blend-mode:soft-light">
<path d="M1114.14 654.588C1056 777.354 973.267 874.856 862.962 877.544C694.355 881.654 901.734 760.663 1114.14 654.588C1149.73 579.419 1176.1 494.778 1193.92 416.63C1064.46 373.416 905.813 320.289 771.23 274.705C772.385 278.326 773.573 281.899 774.792 285.416C840.557 309.683 879.552 337.769 862.962 363.777C836.693 404.957 799.439 356.538 774.792 285.416C764.86 281.751 754.318 278.174 743.264 274.703C737.866 276.875 732.473 279.054 727.088 281.237C651.567 325.989 578.379 367.153 559.355 397.699C533.526 439.171 452.242 517.275 393.592 588.132C425.981 666.353 439.962 744.205 371.722 736.316C296.139 727.578 332.643 661.768 393.592 588.132C369.857 530.81 336.236 473.29 317.841 449.168C311.052 450.815 307.181 450.903 306.633 449.184C301.225 432.236 306.781 434.665 317.841 449.168C363.411 438.119 540.475 356.894 727.088 281.237C731.341 278.717 735.602 276.185 739.861 273.643C644.465 244.162 512.432 222.684 405.793 221.909C351.656 290.042 302.827 402.107 265.929 363.777C163.796 257.68 261.569 220.861 405.793 221.909C432.691 188.056 460.9 165.049 489.607 176.726C516.681 187.739 620.375 223.54 750.063 267.53C755.453 264.287 760.829 261.028 766.171 257.758C733.863 141.861 737.972 -7.56139 862.962 49C988.001 105.584 885.516 184.694 766.171 257.758C766.824 260.1 767.492 262.429 768.174 264.742C956.79 189.806 1146.04 126.133 1211.5 151C1230.33 158.153 1225.76 277.031 1193.92 416.63C1336.95 464.372 1444.36 500.013 1444.36 500.013C1444.36 500.013 1277.76 572.875 1114.14 654.588Z" fill="#00BCEF"/>
</g>
</g>
<defs>
<linearGradient id="paint0_linear_876_136" x1="792.494" y1="1.53311" x2="792.494" y2="629.738" gradientUnits="userSpaceOnUse">
<stop offset="0.01" stop-color="#05A3CD"/>
<stop offset="0.423647" stop-color="#00C6FA"/>
<stop offset="1" stop-color="#05A3CD"/>
</linearGradient>
<linearGradient id="paint1_linear_876_136" x1="1094.66" y1="270.836" x2="1094.66" y2="1027.34" gradientUnits="userSpaceOnUse">
<stop stop-color="#30AAF5"/>
<stop offset="0.5" stop-color="#5EBBF4"/>
<stop offset="0.675" stop-color="#33A1E4"/>
<stop offset="1" stop-color="#0071B7"/>
</linearGradient>
<linearGradient id="paint2_linear_876_136" x1="926.883" y1="1477.23" x2="917.28" y2="789.641" gradientUnits="userSpaceOnUse">
<stop stop-color="white"/>
<stop offset="0.51" stop-color="#9EB4F8"/>
<stop offset="1" stop-color="#6686E3"/>
</linearGradient>
<linearGradient id="paint3_linear_876_136" x1="726.424" y1="197.633" x2="732.378" y2="1004.82" gradientUnits="userSpaceOnUse">
<stop stop-color="#30AAF5"/>
<stop offset="0.5" stop-color="#5EBBF4"/>
<stop offset="0.675" stop-color="#33A1E4"/>
<stop offset="1" stop-color="#0071B7"/>
</linearGradient>
<linearGradient id="paint4_linear_876_136" x1="719.623" y1="383.926" x2="724.234" y2="1009.16" gradientUnits="userSpaceOnUse">
<stop stop-color="#30AAF5"/>
<stop offset="0.5" stop-color="#5EBBF4"/>
<stop offset="0.675" stop-color="#33A1E4"/>
<stop offset="1" stop-color="#0071B7"/>
</linearGradient>
<clipPath id="clip0_876_136">
<rect width="1440" height="1024" fill="white"/>
</clipPath>
</defs>
</svg>
