<svg width="1920" height="1080" viewBox="0 0 1491 1007" fill="none" xmlns="http://www.w3.org/2000/svg">
<g clip-path="url(#clip0_876_136)">
<rect width="1491" height="1007" fill="white"/>
<path d="M191.627 177.597C214.008 176.028 239.522 146.218 246.684 150.402C252.056 153.54 240.417 165.568 242.208 172.89C243.998 180.212 252.503 178.12 257.427 176.028C262.351 173.936 277.452 162.43 285.179 162.43C293.236 162.43 305.77 173.52 312.932 174.043C320.094 174.566 332.179 181.78 379.627 156.678" stroke="white" stroke-width="4"/>
<path d="M216.034 211V202.146L212.576 208.739H211.113L207.655 202.146V211H205.033V197.51H207.845L211.835 205.186L215.863 197.51H218.656V211H216.034ZM226.317 211V197.51H228.939V211H226.317ZM245.605 211H243.059V205.414C243.059 204.616 242.92 204.033 242.641 203.666C242.362 203.299 241.976 203.115 241.482 203.115C241.14 203.115 240.792 203.204 240.437 203.381C240.095 203.558 239.785 203.805 239.506 204.122C239.227 204.426 239.025 204.781 238.898 205.186V211H236.352V201.044H238.651V202.887C238.904 202.456 239.227 202.095 239.62 201.804C240.013 201.5 240.462 201.272 240.969 201.12C241.488 200.955 242.033 200.873 242.603 200.873C243.224 200.873 243.73 200.987 244.123 201.215C244.528 201.43 244.832 201.728 245.035 202.108C245.25 202.475 245.396 202.893 245.472 203.362C245.561 203.831 245.605 204.306 245.605 204.787V211ZM252.056 206.022C252.056 205.059 252.246 204.192 252.626 203.419C253.006 202.634 253.531 202.013 254.203 201.557C254.874 201.101 255.64 200.873 256.502 200.873C257.236 200.873 257.895 201.057 258.478 201.424C259.073 201.779 259.535 202.235 259.865 202.792V197.13H262.411V208.15C262.411 208.416 262.455 208.606 262.544 208.72C262.632 208.834 262.784 208.904 263 208.929V211C262.556 211.089 262.195 211.133 261.917 211.133C261.461 211.133 261.081 211.019 260.777 210.791C260.485 210.563 260.321 210.265 260.283 209.898L260.245 209.271C259.877 209.892 259.377 210.367 258.744 210.696C258.123 211.025 257.471 211.19 256.787 211.19C256.103 211.19 255.469 211.057 254.887 210.791C254.317 210.525 253.816 210.158 253.386 209.689C252.968 209.22 252.638 208.676 252.398 208.055C252.17 207.422 252.056 206.744 252.056 206.022ZM259.865 207.352V204.977C259.738 204.61 259.535 204.28 259.257 203.989C258.978 203.698 258.668 203.47 258.326 203.305C257.984 203.128 257.642 203.039 257.3 203.039C256.907 203.039 256.552 203.121 256.236 203.286C255.919 203.451 255.64 203.672 255.4 203.951C255.172 204.23 254.994 204.553 254.868 204.92C254.754 205.287 254.697 205.674 254.697 206.079C254.697 206.484 254.76 206.871 254.887 207.238C255.026 207.593 255.222 207.903 255.476 208.169C255.729 208.435 256.02 208.644 256.35 208.796C256.692 208.948 257.059 209.024 257.452 209.024C257.692 209.024 257.933 208.986 258.174 208.91C258.427 208.821 258.661 208.707 258.877 208.568C259.105 208.416 259.301 208.239 259.466 208.036C259.643 207.821 259.776 207.593 259.865 207.352ZM269.736 197.13H272.282V207.808C272.282 208.264 272.358 208.574 272.51 208.739C272.662 208.891 272.871 208.967 273.137 208.967C273.339 208.967 273.548 208.942 273.764 208.891C273.979 208.84 274.169 208.777 274.334 208.701L274.676 210.639C274.334 210.804 273.935 210.93 273.479 211.019C273.023 211.108 272.611 211.152 272.244 211.152C271.446 211.152 270.825 210.943 270.382 210.525C269.951 210.094 269.736 209.486 269.736 208.701V197.13ZM280.63 211V201.044H283.176V211H280.63ZM280.63 199.657V197.13H283.176V199.657H280.63ZM299.571 211H297.025V205.414C297.025 204.616 296.886 204.033 296.607 203.666C296.328 203.299 295.942 203.115 295.448 203.115C295.106 203.115 294.758 203.204 294.403 203.381C294.061 203.558 293.751 203.805 293.472 204.122C293.193 204.426 292.991 204.781 292.864 205.186V211H290.318V201.044H292.617V202.887C292.87 202.456 293.193 202.095 293.586 201.804C293.979 201.5 294.428 201.272 294.935 201.12C295.454 200.955 295.999 200.873 296.569 200.873C297.19 200.873 297.696 200.987 298.089 201.215C298.494 201.43 298.798 201.728 299.001 202.108C299.216 202.475 299.362 202.893 299.438 203.362C299.527 203.831 299.571 204.306 299.571 204.787V211ZM311.247 211.19C310.449 211.19 309.727 211.057 309.081 210.791C308.435 210.512 307.884 210.139 307.428 209.67C306.972 209.189 306.617 208.644 306.364 208.036C306.123 207.415 306.003 206.763 306.003 206.079C306.003 205.129 306.212 204.261 306.63 203.476C307.06 202.691 307.668 202.064 308.454 201.595C309.252 201.114 310.189 200.873 311.266 200.873C312.355 200.873 313.286 201.114 314.059 201.595C314.831 202.064 315.42 202.691 315.826 203.476C316.244 204.249 316.453 205.085 316.453 205.984C316.453 206.136 316.446 206.294 316.434 206.459C316.421 206.611 316.408 206.738 316.396 206.839H308.701C308.751 207.346 308.897 207.789 309.138 208.169C309.391 208.549 309.708 208.84 310.088 209.043C310.48 209.233 310.898 209.328 311.342 209.328C311.848 209.328 312.323 209.208 312.767 208.967C313.223 208.714 313.533 208.384 313.698 207.979L315.883 208.587C315.642 209.094 315.294 209.543 314.838 209.936C314.394 210.329 313.869 210.639 313.261 210.867C312.653 211.082 311.981 211.19 311.247 211.19ZM308.644 205.224H313.85C313.799 204.717 313.653 204.28 313.413 203.913C313.185 203.533 312.881 203.242 312.501 203.039C312.121 202.824 311.696 202.716 311.228 202.716C310.772 202.716 310.354 202.824 309.974 203.039C309.606 203.242 309.302 203.533 309.062 203.913C308.834 204.28 308.694 204.717 308.644 205.224ZM335.578 197.51H338.238L343.197 211H340.499L339.245 207.637H334.533L333.298 211H330.6L335.578 197.51ZM338.77 205.794L336.908 200.227L334.97 205.794H338.77ZM354.703 211.095C353.626 211.095 352.708 210.918 351.948 210.563C351.201 210.196 350.593 209.695 350.124 209.062C349.668 208.429 349.332 207.713 349.117 206.915C348.902 206.104 348.794 205.262 348.794 204.388V197.51H351.416V204.388C351.416 204.945 351.467 205.49 351.568 206.022C351.682 206.541 351.866 207.01 352.119 207.428C352.372 207.846 352.708 208.175 353.126 208.416C353.544 208.657 354.063 208.777 354.684 208.777C355.317 208.777 355.843 208.657 356.261 208.416C356.692 208.163 357.027 207.827 357.268 207.409C357.521 206.991 357.705 206.522 357.819 206.003C357.933 205.471 357.99 204.933 357.99 204.388V197.51H360.593V204.388C360.593 205.313 360.479 206.18 360.251 206.991C360.036 207.802 359.687 208.517 359.206 209.138C358.737 209.746 358.129 210.227 357.382 210.582C356.635 210.924 355.742 211.095 354.703 211.095Z" fill="white"/>
<path d="M-383.5 -275.5L562 -154.5L1600 -126.5L1524 1162H-438L-383.5 -275.5Z" fill="url(#paint0_linear_876_136)"/>
<g style="mix-blend-mode:luminosity">
<path d="M1507 1162C1507 590.464 1506.18 975.078 1438.02 935.969C1352.83 887.082 1260.52 798.924 1229.82 762.894C1130.06 645.809 949.057 890.8 855.565 881.721C828.806 879.123 776.558 842.248 723.079 795.683C791.235 776.796 804.09 729.123 676.275 647.86C448.673 503.153 589.705 679.553 723.079 795.683C621.202 823.915 395.765 787.832 331.861 703.48C225.205 562.695 53.3068 658.012 16.3621 541.383C-1.85083 483.887 88.2633 386.829 180.558 322.102C257.154 396.406 330.774 433.758 356.773 303.207C372.714 223.161 275.483 255.531 180.558 322.102C97.3307 241.365 10.5896 117 -22.3911 117L-59 1162H1507Z" fill="url(#paint1_linear_876_136)"/>
</g>
<g style="mix-blend-mode:luminosity">
<path d="M-10.7477 1477.2C-15.1027 818.658 464.323 1376.28 431.933 1302.94C380.776 1187.1 328.3 1090.29 278.23 1009.38C228.465 1066.63 220.794 1137.42 151.665 1144.37C81.8503 1151.39 84.8327 891.449 68.4658 726.491C12.3718 661.501 -18.146 628.941 -3.59243 612.33C41.4017 560.978 58.512 626.169 68.4658 726.491C121.189 787.576 196.506 877.309 278.23 1009.38C309.289 973.647 356.743 943.189 445.765 936.814C677.43 920.222 652.509 1097.51 779.596 934.351C878.946 806.8 1037.99 964.723 1246.87 1030.68L1240.98 601.625C1227.49 591.78 1213.83 582.641 1200.08 574.346C1082.56 639.944 818.965 891.316 845.25 760.872C899.162 493.319 1054.06 486.204 1200.08 574.346C1216.97 564.921 1230.84 559.33 1240.4 559.26L1240.98 601.625C1440.01 746.828 1602.04 1045.61 1433.26 1056.21C1367.39 1060.34 1305.19 1049.1 1246.87 1030.68L1252.75 1459.21L-10.7477 1477.2Z" fill="url(#paint2_linear_876_136)"/>
</g>
<g style="mix-blend-mode:soft-light">
<path d="M-0.305904 1014.7C-3.81669 483.824 407.644 867.611 501.799 830.588C529.154 819.832 517.036 784.566 482.849 736.342C370.995 713.991 314.984 672.656 226.527 679.072C150.647 684.576 149.895 498.603 134.564 365.903C75.449 304.808 37.123 259.897 48.807 250.565C105.666 205.15 123.745 272.263 134.564 365.903C239.696 474.558 410.581 634.402 482.849 736.342C534.65 746.693 598.429 752.972 682.954 748.551C949.992 734.584 803.871 640.021 950.717 508.163C1097.56 376.304 798.465 870.545 1146.35 854.501C1345.59 845.312 1328.48 511.402 1248.23 328.368C1127.9 386.329 1013.44 414.031 1026.78 368.144C1093.33 139.239 1188.36 191.814 1248.23 328.368C1302.85 302.058 1358.68 269.512 1404.32 234.785L1359.43 -7.67257C1571.73 41.4999 1521.81 145.375 1404.32 234.785L1546.07 1000.33L-0.305904 1014.7Z" fill="url(#paint3_linear_876_136)"/>
</g>
<g style="mix-blend-mode:soft-light">
<path d="M1618.82 -47.4384C1595.31 501.342 1168.87 82.833 1064.86 116.078C1034.64 125.737 1045.97 162.825 1080.56 214.48C1200.71 243.533 1259.32 289.23 1355.57 287.31C1438.14 285.663 1429.39 477.884 1439.19 615.831C1500.15 682.113 1539.4 730.565 1526.25 739.586C1462.25 783.489 1446.1 713.173 1439.19 615.831C1330.77 497.95 1153.69 323.67 1080.56 214.48C1024.92 201.024 956.083 191.139 864.196 191.206C573.9 191.42 727.49 296.921 561.466 425.36C395.443 553.8 745.212 58.989 367.137 57.0432C150.607 55.9287 151.981 401.896 229.593 595.314C363.061 541.826 488.606 519.294 471.778 566.003C387.834 799.005 287.496 739.615 229.593 595.314C169.008 619.593 106.79 650.252 55.5155 683.709L91.7252 936.65C-135.967 874.531 -76.4958 769.847 55.5155 683.709L-58.8154 -114.945L1618.82 -47.4384Z" fill="url(#paint4_linear_876_136)"/>
</g>
<g style="mix-blend-mode:soft-light">
<path d="M1073.52 691.766C1034.66 804.528 975.686 884.241 885.852 885.003C727.074 886.349 880.602 789.162 1073.52 691.766C1105.44 599.136 1123.79 484.206 1134.5 372.419C1102.62 361.415 1069.88 350.107 1036.85 338.682C888.473 422.721 663.058 444.398 498.181 444.248C462.385 483.429 418.128 529.237 382.153 572.536C417.879 655.416 434.033 737.599 361.371 728.159C280.889 717.702 318.595 649.035 382.153 572.536C357.802 516.046 324.358 459.233 303.747 430.89C293.74 428.775 288.038 426.678 287.415 424.823C280.684 404.809 288.875 410.437 303.747 430.89C334.795 437.448 407.29 444.165 498.181 444.248C523.241 416.818 544.154 392.636 555.175 374.836C575.998 341.205 660.86 296.11 744.97 247.254C643.085 214.631 502.391 189.825 389.032 187.233C332.624 258.052 282.587 375.205 242.731 334.242C132.412 220.858 235.722 183.729 389.032 187.233C417.06 152.046 446.661 128.297 477.367 141.067C506.326 153.11 617.137 192.523 755.712 240.989C761.388 237.664 767.047 234.324 772.671 230.97C736.404 108.432 738.287 -48.7892 872.078 12.8317C1005.92 74.4768 898.306 156.046 772.671 230.97C774.467 237.04 776.358 243.025 778.33 248.894C859.708 277.316 949.316 308.409 1036.85 338.682C1080.19 314.132 1116.96 284.26 1143.73 248.055C1153.58 68.1478 1147.89 -74.7458 1155.96 -55.3325C1210.91 76.8707 1197.54 175.262 1143.73 248.055C1141.53 288.134 1138.57 330.051 1134.5 372.419C1332.39 440.707 1497.54 497.274 1497.54 497.274C1497.54 497.274 1265.94 594.624 1073.52 691.766Z" fill="#00BCEF"/>
</g>
<g style="mix-blend-mode:soft-light">
<path d="M172.441 1160.9C40.2184 1043.05 -49.9339 903.016 -8.52522 761.996C54.7702 546.439 124.095 853.155 172.441 1160.9C253.401 1233.06 350.133 1296.9 442.095 1347.57C549.56 1198.69 681.467 1016.31 794.019 861.78C788.954 861.947 783.936 862.174 778.976 862.46C721.447 937.258 669.948 976.695 643.674 946.3C602.072 898.173 678.675 868.241 778.976 862.46C787.412 851.492 795.977 839.763 804.612 827.383C796.165 717.574 785.494 609.03 775.995 515.244C762 525.518 746.261 541.94 728.501 565.5C571.38 773.939 502.524 493.99 452.299 307.152C389.188 272.671 351.233 231.417 370.369 188.924C400.43 122.169 423.248 199.086 452.299 307.152C536.642 353.233 665.915 387.215 763.9 395.885C753.579 292.175 748.205 226.326 756 231C983.269 367.271 906.911 408.538 763.9 395.885C767.457 431.621 771.6 471.853 775.995 515.244C844.52 464.941 871.232 562.041 888.582 690.362C936.768 602.18 980.829 504.242 1009.53 416.718C945.042 323.539 822.624 221.338 886.275 188.238C1062.46 96.6187 1069.47 233.971 1009.53 416.718C1041.58 463.015 1059.32 507.086 1032.83 539.347C1014.5 561.678 962.438 631.63 893.118 726.139C898.674 772.589 903.449 821.555 908.824 868.091C1037.64 886.967 1142.77 946.876 1043.26 1059.22C953.186 1160.92 927.415 1029.04 908.824 868.091C875.477 863.204 840.542 861.068 807.158 861.483C826.323 1126.48 830.519 1390.73 772.155 1465.17C755.424 1486.52 606.371 1438.07 442.095 1347.57C323.371 1512.05 234.48 1635.64 234.48 1635.64C234.48 1635.64 209.685 1397.97 172.441 1160.9Z" fill="#00BCEF"/>
</g>
</g>
<defs>
<linearGradient id="paint0_linear_876_136" x1="543.494" y1="118.533" x2="543.494" y2="746.737" gradientUnits="userSpaceOnUse">
<stop offset="0.01" stop-color="#05A3CD"/>
<stop offset="0.423647" stop-color="#00C6FA"/>
<stop offset="1" stop-color="#05A3CD"/>
</linearGradient>
<linearGradient id="paint1_linear_876_136" x1="724" y1="306.342" x2="724" y2="1142.34" gradientUnits="userSpaceOnUse">
<stop stop-color="#30AAF5"/>
<stop offset="0.5" stop-color="#5EBBF4"/>
<stop offset="0.675" stop-color="#33A1E4"/>
<stop offset="1" stop-color="#0071B7"/>
</linearGradient>
<linearGradient id="paint2_linear_876_136" x1="623.767" y1="1421.84" x2="616.463" y2="845.197" gradientUnits="userSpaceOnUse">
<stop stop-color="white"/>
<stop offset="0.51" stop-color="#9EB4F8"/>
<stop offset="1" stop-color="#6686E3"/>
</linearGradient>
<linearGradient id="paint3_linear_876_136" x1="767.41" y1="180.118" x2="773.383" y2="989.946" gradientUnits="userSpaceOnUse">
<stop stop-color="#30AAF5"/>
<stop offset="0.5" stop-color="#5EBBF4"/>
<stop offset="0.675" stop-color="#33A1E4"/>
<stop offset="1" stop-color="#0071B7"/>
</linearGradient>
<linearGradient id="paint4_linear_876_136" x1="743.37" y1="774.117" x2="778.584" y2="-63.0605" gradientUnits="userSpaceOnUse">
<stop stop-color="#30AAF5"/>
<stop offset="0.5" stop-color="#5EBBF4"/>
<stop offset="0.675" stop-color="#33A1E4"/>
<stop offset="1" stop-color="#0071B7"/>
</linearGradient>
<clipPath id="clip0_876_136">
<rect width="1491" height="1007" fill="white"/>
</clipPath>
</defs>
</svg>
