<svg width="1920" height="1080" viewBox="0 0 1920 1080" fill="none" xmlns="http://www.w3.org/2000/svg">
<g clip-path="url(#clip0_876_136)">
<rect width="1920" height="1080" fill="white"/>
<path d="M-64.3088 8.85181V-0.00219375L-67.7668 6.59081H-69.2298L-72.6878 -0.00219375V8.85181H-75.3098V-4.63819H-72.4978L-68.5078 3.03781L-64.4798 -4.63819H-61.6868V8.85181H-64.3088ZM-54.0254 8.85181V-4.63819H-51.4034V8.85181H-54.0254ZM-34.7378 8.85181H-37.2838V3.26581C-37.2838 2.46781 -37.4232 1.88514 -37.7018 1.51781C-37.9805 1.15047 -38.3668 0.966806 -38.8608 0.966806C-39.2028 0.966806 -39.5512 1.05547 -39.9058 1.23281C-40.2478 1.41014 -40.5582 1.65714 -40.8368 1.97381C-41.1155 2.27781 -41.3182 2.63247 -41.4448 3.03781V8.85181H-43.9908V-1.10419H-41.6918V0.738806C-41.4385 0.30814 -41.1155 -0.0528605 -40.7228 -0.344194C-40.3302 -0.648194 -39.8805 -0.876194 -39.3738 -1.02819C-38.8545 -1.19286 -38.3098 -1.27519 -37.7398 -1.27519C-37.1192 -1.27519 -36.6125 -1.16119 -36.2198 -0.933194C-35.8145 -0.717861 -35.5105 -0.420194 -35.3078 -0.0401938C-35.0925 0.32714 -34.9468 0.74514 -34.8708 1.21381C-34.7822 1.68247 -34.7378 2.15747 -34.7378 2.63881V8.85181ZM-28.287 3.87381C-28.287 2.91114 -28.097 2.04347 -27.717 1.27081C-27.337 0.485473 -26.8114 -0.135194 -26.14 -0.591194C-25.4687 -1.04719 -24.7024 -1.27519 -23.841 -1.27519C-23.1064 -1.27519 -22.4477 -1.09153 -21.865 -0.724194C-21.2697 -0.369527 -20.8074 0.0864731 -20.478 0.643806V-5.01819H-17.932V6.00181C-17.932 6.26781 -17.8877 6.45781 -17.799 6.57181C-17.7104 6.68581 -17.5584 6.75547 -17.343 6.78081V8.85181C-17.7864 8.94047 -18.1474 8.98481 -18.426 8.98481C-18.882 8.98481 -19.262 8.87081 -19.566 8.64281C-19.8574 8.41481 -20.022 8.11714 -20.06 7.74981L-20.098 7.12281C-20.4654 7.74347 -20.9657 8.21847 -21.599 8.54781C-22.2197 8.87714 -22.872 9.04181 -23.556 9.04181C-24.24 9.04181 -24.8734 8.90881 -25.456 8.64281C-26.026 8.37681 -26.5264 8.00947 -26.957 7.54081C-27.375 7.07214 -27.7044 6.52747 -27.945 5.90681C-28.173 5.27347 -28.287 4.59581 -28.287 3.87381ZM-20.478 5.20381V2.82881C-20.6047 2.46147 -20.8074 2.13214 -21.086 1.84081C-21.3647 1.54947 -21.675 1.32147 -22.017 1.15681C-22.359 0.979473 -22.701 0.890806 -23.043 0.890806C-23.4357 0.890806 -23.7904 0.973139 -24.107 1.13781C-24.4237 1.30247 -24.7024 1.52414 -24.943 1.80281C-25.171 2.08147 -25.3484 2.40447 -25.475 2.77181C-25.589 3.13914 -25.646 3.52547 -25.646 3.93081C-25.646 4.33614 -25.5827 4.72247 -25.456 5.08981C-25.3167 5.44447 -25.1204 5.75481 -24.867 6.02081C-24.6137 6.28681 -24.3224 6.49581 -23.993 6.64781C-23.651 6.79981 -23.2837 6.87581 -22.891 6.87581C-22.6504 6.87581 -22.4097 6.83781 -22.169 6.76181C-21.9157 6.67314 -21.6814 6.55914 -21.466 6.41981C-21.238 6.26781 -21.0417 6.09047 -20.877 5.88781C-20.6997 5.67247 -20.5667 5.44447 -20.478 5.20381ZM-10.607 -5.01819H-8.06096V5.65981C-8.06096 6.11581 -7.98496 6.42614 -7.83296 6.59081C-7.68096 6.74281 -7.47196 6.81881 -7.20596 6.81881C-7.00329 6.81881 -6.79429 6.79347 -6.57896 6.74281C-6.36362 6.69214 -6.17362 6.62881 -6.00896 6.55281L-5.66696 8.49081C-6.00896 8.65547 -6.40796 8.78214 -6.86396 8.87081C-7.31996 8.95947 -7.73162 9.00381 -8.09896 9.00381C-8.89696 9.00381 -9.51762 8.79481 -9.96096 8.37681C-10.3916 7.94614 -10.607 7.33814 -10.607 6.55281V-5.01819ZM0.287319 8.85181V-1.10419H2.83332V8.85181H0.287319ZM0.287319 -2.49119V-5.01819H2.83332V-2.49119H0.287319ZM19.2281 8.85181H16.6821V3.26581C16.6821 2.46781 16.5428 1.88514 16.2641 1.51781C15.9854 1.15047 15.5991 0.966806 15.1051 0.966806C14.7631 0.966806 14.4148 1.05547 14.0601 1.23281C13.7181 1.41014 13.4078 1.65714 13.1291 1.97381C12.8504 2.27781 12.6478 2.63247 12.5211 3.03781V8.85181H9.97509V-1.10419H12.2741V0.738806C12.5274 0.30814 12.8504 -0.0528605 13.2431 -0.344194C13.6358 -0.648194 14.0854 -0.876194 14.5921 -1.02819C15.1114 -1.19286 15.6561 -1.27519 16.2261 -1.27519C16.8468 -1.27519 17.3534 -1.16119 17.7461 -0.933194C18.1514 -0.717861 18.4554 -0.420194 18.6581 -0.0401938C18.8734 0.32714 19.0191 0.74514 19.0951 1.21381C19.1838 1.68247 19.2281 2.15747 19.2281 2.63881V8.85181ZM30.9039 9.04181C30.1059 9.04181 29.3839 8.90881 28.7379 8.64281C28.0919 8.36414 27.5409 7.99047 27.0849 7.52181C26.6289 7.04047 26.2742 6.49581 26.0209 5.88781C25.7802 5.26714 25.6599 4.61481 25.6599 3.93081C25.6599 2.98081 25.8689 2.11314 26.2869 1.32781C26.7176 0.542473 27.3256 -0.0845273 28.1109 -0.553194C28.9089 -1.03453 29.8462 -1.27519 30.9229 -1.27519C32.0122 -1.27519 32.9432 -1.03453 33.7159 -0.553194C34.4886 -0.0845273 35.0776 0.542473 35.4829 1.32781C35.9009 2.10047 36.1099 2.93647 36.1099 3.83581C36.1099 3.98781 36.1036 4.14614 36.0909 4.31081C36.0782 4.46281 36.0656 4.58947 36.0529 4.69081H28.3579C28.4086 5.19747 28.5542 5.64081 28.7949 6.02081C29.0482 6.40081 29.3649 6.69214 29.7449 6.89481C30.1376 7.08481 30.5556 7.17981 30.9989 7.17981C31.5056 7.17981 31.9806 7.05947 32.4239 6.81881C32.8799 6.56547 33.1902 6.23614 33.3549 5.83081L35.5399 6.43881C35.2992 6.94547 34.9509 7.39514 34.4949 7.78781C34.0516 8.18047 33.5259 8.49081 32.9179 8.71881C32.3099 8.93414 31.6386 9.04181 30.9039 9.04181ZM28.3009 3.07581H33.5069C33.4562 2.56914 33.3106 2.13214 33.0699 1.76481C32.8419 1.38481 32.5379 1.09347 32.1579 0.890806C31.7779 0.675473 31.3536 0.567806 30.8849 0.567806C30.4289 0.567806 30.0109 0.675473 29.6309 0.890806C29.2636 1.09347 28.9596 1.38481 28.7189 1.76481C28.4909 2.13214 28.3516 2.56914 28.3009 3.07581ZM55.2356 -4.63819H57.8956L62.8546 8.85181H60.1566L58.9026 5.48881H54.1906L52.9556 8.85181H50.2576L55.2356 -4.63819ZM58.4276 3.64581L56.5656 -1.92119L54.6276 3.64581H58.4276ZM74.3602 8.94681C73.2835 8.94681 72.3652 8.76947 71.6052 8.41481C70.8578 8.04747 70.2498 7.54714 69.7812 6.91381C69.3252 6.28047 68.9895 5.56481 68.7742 4.76681C68.5588 3.95614 68.4512 3.11381 68.4512 2.23981V-4.63819H71.0732V2.23981C71.0732 2.79714 71.1238 3.34181 71.2252 3.87381C71.3392 4.39314 71.5228 4.86181 71.7762 5.27981C72.0295 5.69781 72.3652 6.02714 72.7832 6.26781C73.2012 6.50847 73.7205 6.62881 74.3412 6.62881C74.9745 6.62881 75.5002 6.50847 75.9182 6.26781C76.3488 6.01447 76.6845 5.67881 76.9252 5.26081C77.1785 4.84281 77.3622 4.37414 77.4762 3.85481C77.5902 3.32281 77.6472 2.78447 77.6472 2.23981V-4.63819H80.2502V2.23981C80.2502 3.16447 80.1362 4.03214 79.9082 4.84281C79.6928 5.65347 79.3445 6.36914 78.8632 6.98981C78.3945 7.59781 77.7865 8.07914 77.0392 8.43381C76.2918 8.77581 75.3988 8.94681 74.3602 8.94681Z" fill="white"/>
<path d="M-1142.11 -856.02L573.578 -636.456L2457.11 -585.647L2319.2 1752.44H-1241L-1142.11 -856.02Z" fill="url(#paint0_linear_876_136)"/>
<g style="mix-blend-mode:luminosity">
<path d="M2288.35 1752.44C2288.35 715.34 2286.87 1413.25 2163.19 1342.29C2008.59 1253.58 1841.09 1093.61 1785.39 1028.23C1604.37 815.768 1275.92 1260.32 1106.27 1243.85C1057.72 1239.13 962.909 1172.22 865.867 1087.73C989.543 1053.45 1012.87 966.947 780.939 819.489C367.937 556.907 623.849 876.998 865.867 1087.73C681.004 1138.95 271.932 1073.48 155.973 920.415C-37.5642 664.95 -349.486 837.911 -416.525 626.278C-449.574 521.948 -286.055 345.828 -118.579 228.376C20.4104 363.206 153.999 430.984 201.176 194.09C230.103 48.8395 53.6689 107.578 -118.579 228.376C-269.601 81.8721 -427 -143.798 -486.846 -143.798L-553.276 1752.44H2288.35Z" fill="url(#paint1_linear_876_136)"/>
</g>
<g style="mix-blend-mode:luminosity">
<path d="M-465.717 2324.38C-473.62 1129.42 396.335 2141.27 337.562 2008.18C244.733 1797.97 149.512 1622.31 58.6558 1475.49C-31.6477 1579.38 -45.5667 1707.83 -171.007 1720.44C-297.691 1733.18 -292.279 1261.5 -321.978 962.172C-423.765 844.242 -479.142 785.159 -452.733 755.018C-371.088 661.835 -340.04 780.13 -321.978 962.172C-226.308 1073.01 -89.6393 1235.84 58.6558 1475.49C115.014 1410.65 201.124 1355.39 362.662 1343.82C783.035 1313.71 737.813 1635.42 968.423 1339.35C1148.7 1107.9 1437.3 1394.46 1816.33 1514.15L1805.65 735.592C1781.16 717.728 1756.37 701.145 1731.43 686.093C1518.18 805.126 1039.86 1261.26 1087.56 1024.56C1185.39 539.062 1466.46 526.153 1731.43 686.093C1762.08 668.989 1787.24 658.846 1804.59 658.718L1805.65 735.592C2166.8 999.074 2460.8 1541.24 2154.55 1560.47C2035.02 1567.97 1922.15 1547.56 1816.33 1514.15L1827 2291.74L-465.717 2324.38Z" fill="url(#paint2_linear_876_136)"/>
</g>
<g style="mix-blend-mode:soft-light">
<path d="M-446.77 1485.14C-453.141 521.833 293.488 1218.24 464.338 1151.06C513.976 1131.54 491.988 1067.55 429.952 980.046C226.985 939.488 125.348 864.483 -35.1648 876.126C-172.853 886.114 -174.218 548.651 -202.039 307.857C-309.307 196.994 -378.852 115.5 -357.651 98.5656C-254.475 16.1571 -221.67 137.939 -202.039 307.857C-11.2675 505.02 298.817 795.069 429.952 980.046C523.95 998.829 639.681 1010.22 793.059 1002.2C1277.62 976.856 1012.47 805.264 1278.94 565.997C1545.4 326.73 1002.66 1223.57 1633.93 1194.45C1995.47 1177.78 1964.42 571.875 1818.8 239.746C1600.45 344.92 1392.75 395.187 1416.96 311.922C1537.72 -103.444 1710.15 -8.04295 1818.8 239.746C1917.91 192.004 2019.22 132.947 2102.03 69.9315L2020.57 -370.026C2405.81 -280.799 2315.23 -92.31 2102.03 69.9315L2359.25 1459.08L-446.77 1485.14Z" fill="url(#paint3_linear_876_136)"/>
</g>
<g style="mix-blend-mode:soft-light">
<path d="M2491.26 -442.184C2448.61 553.621 1674.79 -205.796 1486.06 -145.471C1431.23 -127.944 1451.78 -60.6454 1514.55 33.0865C1732.56 85.8061 1838.92 168.727 2013.58 165.243C2163.4 162.254 2147.52 511.055 2165.3 761.369C2275.92 881.645 2347.15 969.563 2323.28 985.933C2207.16 1065.6 2177.85 938.004 2165.3 761.369C1968.57 547.466 1647.24 231.221 1514.55 33.0865C1413.59 8.67096 1288.67 -9.2669 1121.94 -9.14446C595.172 -8.75725 873.873 182.682 572.61 415.746C271.348 648.811 906.031 -249.063 219.985 -252.594C-172.925 -254.616 -170.432 373.169 -29.5992 724.14C212.588 627.082 440.399 586.197 409.864 670.953C257.542 1093.75 75.4709 985.986 -29.5992 724.14C-139.536 768.197 -252.436 823.83 -345.477 884.54L-279.771 1343.52C-692.936 1230.8 -585.022 1040.84 -345.477 884.54L-552.939 -564.679L2491.26 -442.184Z" fill="url(#paint4_linear_876_136)"/>
</g>
<g style="mix-blend-mode:soft-light">
<path d="M1501.77 899.16C1431.26 1103.78 1324.24 1248.42 1161.23 1249.8C873.116 1252.25 1151.71 1075.89 1501.77 899.16C1559.7 731.076 1592.98 522.526 1612.43 319.68C1554.57 299.713 1495.16 279.194 1435.22 258.462C1165.99 410.956 756.955 450.291 457.773 450.018C392.819 521.116 312.51 604.239 247.231 682.809C312.059 833.199 341.371 982.328 209.52 965.197C63.479 946.223 131.899 821.621 247.231 682.809C203.044 580.303 142.357 477.21 104.958 425.779C86.7977 421.943 76.4517 418.136 75.3204 414.772C63.1081 378.454 77.9702 388.667 104.958 425.779C161.296 437.681 292.843 449.868 457.773 450.018C503.246 400.245 541.194 356.364 561.193 324.065C598.977 263.04 752.966 181.211 905.59 92.5577C720.712 33.3616 465.411 -11.6518 259.714 -16.354C157.357 112.152 66.5607 324.735 -5.76131 250.404C-205.945 44.6606 -18.4804 -22.7134 259.714 -16.354C310.572 -80.2048 364.285 -123.299 420.003 -100.127C472.553 -78.2737 673.627 -6.75547 925.082 81.1898C935.381 75.1568 945.651 69.0954 955.856 63.0098C890.046 -159.345 893.464 -444.635 1136.24 -332.819C1379.11 -220.96 1183.83 -72.9457 955.856 63.0098C959.116 74.0243 962.546 84.8844 966.125 95.5341C1113.79 147.108 1276.39 203.528 1435.22 258.462C1513.88 213.914 1580.6 159.708 1629.17 94.0109C1647.05 -232.444 1636.72 -491.736 1651.36 -456.509C1751.08 -216.616 1726.81 -38.077 1629.17 94.0109C1625.18 166.739 1619.8 242.8 1612.43 319.68C1971.51 443.594 2271.19 546.239 2271.19 546.239C2271.19 546.239 1850.93 722.888 1501.77 899.16Z" fill="#00BCEF"/>
</g>
<g style="mix-blend-mode:soft-light">
<path d="M-133.307 1750.44C-373.236 1536.59 -536.824 1282.49 -461.685 1026.6C-346.83 635.453 -221.036 1192.01 -133.307 1750.44C13.601 1881.38 189.129 1997.23 356.001 2089.16C551.004 1819 790.36 1488.07 994.595 1207.66C985.405 1207.97 976.298 1208.38 967.297 1208.9C862.906 1344.62 769.457 1416.19 721.782 1361.03C646.292 1273.7 785.295 1219.39 967.297 1208.9C982.605 1189 998.148 1167.71 1013.82 1145.25C998.489 945.99 979.125 749.028 961.889 578.847C936.493 597.489 907.933 627.289 875.707 670.041C590.598 1048.27 465.655 540.279 374.516 201.248C259.996 138.68 191.125 63.8202 225.848 -13.2868C280.396 -134.417 321.801 5.15322 374.516 201.248C527.563 284.865 762.14 346.528 939.941 362.26C921.213 174.071 911.461 54.583 925.606 63.0643C1338 310.338 1199.45 385.221 939.941 362.26C946.395 427.107 953.914 500.111 961.889 578.847C1086.23 487.569 1134.7 663.764 1166.19 896.612C1253.62 736.599 1333.58 558.884 1385.66 400.063C1268.64 230.983 1046.5 45.5321 1162 -14.5307C1481.7 -180.781 1494.42 68.4554 1385.66 400.063C1443.81 484.075 1476.01 564.044 1427.94 622.584C1394.67 663.106 1300.2 790.039 1174.42 961.532C1184.5 1045.82 1193.16 1134.67 1202.92 1219.12C1436.67 1253.37 1627.43 1362.08 1446.87 1565.94C1283.42 1750.48 1236.65 1511.16 1202.92 1219.12C1142.41 1210.25 1079.01 1206.37 1018.44 1207.12C1053.21 1687.99 1060.83 2167.48 954.921 2302.57C924.561 2341.29 654.092 2253.39 356.001 2089.16C140.567 2387.62 -20.7332 2611.9 -20.7332 2611.9C-20.7332 2611.9 -65.7252 2180.61 -133.307 1750.44Z" fill="#00BCEF"/>
</g>
</g>
<defs>
<linearGradient id="paint0_linear_876_136" x1="539.997" y1="-141.016" x2="539.997" y2="998.909" gradientUnits="userSpaceOnUse">
<stop offset="0.01" stop-color="#05A3CD"/>
<stop offset="0.423647" stop-color="#00C6FA"/>
<stop offset="1" stop-color="#05A3CD"/>
</linearGradient>
<linearGradient id="paint1_linear_876_136" x1="867.539" y1="199.777" x2="867.539" y2="1716.76" gradientUnits="userSpaceOnUse">
<stop stop-color="#30AAF5"/>
<stop offset="0.5" stop-color="#5EBBF4"/>
<stop offset="0.675" stop-color="#33A1E4"/>
<stop offset="1" stop-color="#0071B7"/>
</linearGradient>
<linearGradient id="paint2_linear_876_136" x1="685.66" y1="2223.94" x2="672.405" y2="1177.57" gradientUnits="userSpaceOnUse">
<stop stop-color="white"/>
<stop offset="0.51" stop-color="#9EB4F8"/>
<stop offset="1" stop-color="#6686E3"/>
</linearGradient>
<linearGradient id="paint3_linear_876_136" x1="946.31" y1="-29.2652" x2="957.149" y2="1440.23" gradientUnits="userSpaceOnUse">
<stop stop-color="#30AAF5"/>
<stop offset="0.5" stop-color="#5EBBF4"/>
<stop offset="0.675" stop-color="#33A1E4"/>
<stop offset="1" stop-color="#0071B7"/>
</linearGradient>
<linearGradient id="paint4_linear_876_136" x1="902.688" y1="1048.59" x2="966.587" y2="-470.532" gradientUnits="userSpaceOnUse">
<stop stop-color="#30AAF5"/>
<stop offset="0.5" stop-color="#5EBBF4"/>
<stop offset="0.675" stop-color="#33A1E4"/>
<stop offset="1" stop-color="#0071B7"/>
</linearGradient>
<clipPath id="clip0_876_136">
<rect width="1920" height="1080" fill="white"/>
</clipPath>
</defs>
</svg>
