<svg width="191" height="158" viewBox="0 0 191 158" fill="none" xmlns="http://www.w3.org/2000/svg">
<path d="M100.963 115.467C100.963 115.467 69.3377 115.467 62.0396 100.871C54.7415 86.274 81.0772 82.6252 69.3377 64.3799C57.5983 46.1347 39.7211 69.2453 29.1979 55.8614C18.6747 42.4775 34.8554 13.293 34.8554 13.293" stroke="#FFE379" stroke-opacity="0.9" stroke-width="1.5"/>
<path d="M159.768 37.9737C159.768 37.9737 176.759 61.3798 176.759 73.5434C176.759 85.707 147.051 82.6359 145.484 96.335C143.917 110.034 169.259 117.788 167.535 130.94C165.812 144.092 137.836 123.414 128.674 148.653" stroke="#FFE379" stroke-opacity="0.9" stroke-width="1.5"/>
<path d="M110.43 76.877C110.43 76.877 129.222 68.6824 125.666 54.0058C122.11 39.3292 107.376 53.9636 107.104 37.7974C106.833 21.6312 128.993 24.9106 125.433 17.6257C121.872 10.3407 101.459 2.371 101.459 2.371" stroke="white" stroke-width="1.5"/>
<path d="M1.33048 109.022C1.33048 109.022 10.4726 101.635 17.258 107.402C24.0435 113.169 12.5675 116.751 20.9809 121.242C29.3944 125.732 33.3832 113.537 36.2886 117.316C39.194 121.095 38.1166 133.661 38.1166 133.661" stroke="white" stroke-width="1.5"/>
</svg>
