<svg width="1407" height="565" viewBox="0 0 1407 565" fill="none" xmlns="http://www.w3.org/2000/svg">
<path d="M662.777 242.969C655.17 234.68 646.731 226.611 636.407 225.305C634.069 225.01 631.466 225.181 629.728 226.992L662.777 242.969ZM662.777 242.969C663.338 243.857 663.913 244.735 664.501 245.603L664.915 245.322L665.286 244.987C664.59 244.215 663.887 243.439 663.176 242.664C656.826 232.6 652.228 221.221 649.646 209.146C649.002 206.127 648.744 202.297 650.994 200.567C653.399 198.718 656.61 200.834 658.609 203.229C666.884 213.139 668.763 225.16 669.824 238.622C669.727 239.546 669.632 240.48 669.539 241.423L670.037 241.472L662.777 242.969ZM677.076 243.666L676.316 243.017C677.13 242.032 677.925 241.056 678.708 240.094C685.566 231.016 688.379 220.437 686.734 208.138C686.642 207.452 686.509 206.764 686.283 206.165C686.056 205.565 685.75 205.094 685.335 204.796C684.655 204.31 683.868 204.378 683.01 204.859C682.144 205.345 681.298 206.211 680.653 207.113L680.653 207.113C673.384 217.272 671.835 228.319 670.535 241.521L669.538 241.507C668.496 226.88 666.964 214.016 658.225 203.549L658.225 203.549C657.256 202.388 656.012 201.32 654.752 200.764C653.503 200.212 652.309 200.187 651.299 200.963L651.299 200.964C650.332 201.707 649.863 202.932 649.733 204.417C649.603 205.897 649.818 207.554 650.135 209.042C652.935 222.132 658.112 234.398 665.329 245.042L664.543 245.657C660.46 241.128 656.184 236.511 651.528 232.847C646.874 229.185 641.872 226.5 636.344 225.801C634.043 225.51 631.654 225.707 630.089 227.338C629.186 228.28 628.677 229.611 628.539 231.069C628.401 232.526 628.636 234.072 629.18 235.401C630.278 238.082 632.366 240.082 634.575 241.835C643.069 248.54 653.109 252.196 663.413 252.348L663.456 253.345C652.864 254.404 642.758 258.94 634.355 266.421C632.841 267.773 631.344 269.591 630.474 271.519C629.604 273.446 629.385 275.419 630.298 277.166C631.353 279.183 633.594 280.006 635.819 280.332L635.82 280.332C647.76 282.116 657.617 275.253 664.136 263.917C664.887 262.365 665.683 260.812 666.52 259.25L667.417 259.692C666.681 261.317 665.884 262.879 665.028 264.37C660.129 274.5 657.224 284.499 657.517 296.425L657.517 296.425C657.562 298.286 657.823 300.259 658.429 301.947C659.037 303.638 659.969 304.991 661.319 305.706L661.319 305.707C663.377 306.8 666.007 306.017 667.867 304.212C669.73 302.405 670.901 299.806 671.888 297.115C675.712 286.606 676.999 275.142 675.647 263.915C675.421 262.462 675.204 261.011 674.99 259.567L675.976 259.404C676.241 260.854 676.461 262.31 676.637 263.77C678.304 274.482 680.432 285.178 685.657 294.07C686.716 295.867 688.148 297.628 689.726 298.731C691.299 299.831 692.939 300.234 694.51 299.506L694.511 299.506C696.215 298.717 697.169 296.938 697.57 294.677C697.969 292.426 697.796 289.806 697.346 287.535C694.903 275.334 687.464 265.365 679.411 256.721L680.042 255.956C691.288 262.998 706.838 263.761 719.277 259.957L719.278 259.957C721.115 259.398 722.908 258.583 723.601 256.834L723.601 256.833C724.041 255.726 723.937 254.503 723.48 253.317C723.023 252.131 722.226 251.017 721.346 250.172C716.045 245.082 708.314 245.101 701.227 246.188L701.152 245.694L701.227 246.188C694.25 247.258 687.371 249.052 680.677 251.548L680.307 250.619C691.755 245.773 703.374 239.564 710.22 228.209C710.853 227.157 711.421 225.917 711.665 224.708C711.909 223.497 711.819 222.377 711.221 221.488L711.221 221.487C710.722 220.746 709.988 220.356 709.124 220.192C708.25 220.027 707.266 220.098 706.338 220.27L706.335 220.271C694.404 222.415 687.821 230.495 679.742 240.41C679.654 240.519 679.565 240.628 679.476 240.737C678.723 241.731 677.923 242.708 677.076 243.666ZM660.529 252.715C661.467 252.567 662.41 252.445 663.356 252.35L663.406 252.848L663.399 253.348C662.446 253.334 661.496 253.29 660.55 253.218C650.894 254.76 641.743 259.175 634.023 266.047C630.92 268.819 627.836 273.535 629.855 277.397C631.026 279.637 633.483 280.495 635.746 280.826C646.76 282.472 655.986 276.914 662.52 267.422L660.529 252.715Z" stroke="#F4D35E"/>
<path d="M662.334 251.411C662.334 257.006 666.509 261.471 671.575 261.471C676.64 261.471 680.815 257.006 680.815 251.411C680.815 245.816 676.64 241.351 671.575 241.351C666.509 241.351 662.334 245.816 662.334 251.411Z" stroke="#FED33D"/>
<path d="M775.68 304.746C768.073 296.456 759.634 288.388 749.31 287.082C746.972 286.786 744.369 286.958 742.631 288.769L775.68 304.746ZM775.68 304.746C776.241 305.634 776.816 306.512 777.404 307.38L777.818 307.099L778.189 306.764C777.493 305.992 776.79 305.216 776.079 304.441C769.729 294.377 765.131 282.998 762.549 270.923C761.905 267.904 761.647 264.074 763.897 262.344C766.302 260.495 769.513 262.611 771.512 265.006C779.787 274.916 781.666 286.937 782.727 300.399C782.63 301.323 782.535 302.256 782.442 303.199L782.94 303.249L775.68 304.746ZM789.979 305.443L789.219 304.794C790.033 303.809 790.828 302.833 791.611 301.871C798.469 292.793 801.282 282.214 799.636 269.914C799.545 269.229 799.412 268.541 799.186 267.942C798.959 267.342 798.653 266.871 798.238 266.573C797.558 266.087 796.771 266.155 795.913 266.636C795.047 267.122 794.201 267.988 793.555 268.89L793.555 268.89C786.287 279.049 784.738 290.096 783.438 303.298L782.441 303.284C781.399 288.657 779.867 275.793 771.128 265.326L771.128 265.326C770.159 264.165 768.915 263.097 767.655 262.541C766.405 261.989 765.212 261.964 764.202 262.74L764.202 262.74C763.235 263.484 762.766 264.709 762.636 266.194C762.506 267.674 762.721 269.33 763.038 270.818C765.838 283.909 771.015 296.174 778.231 306.818L777.446 307.434C773.363 302.905 769.087 298.288 764.431 294.624C759.777 290.961 754.775 288.277 749.247 287.578C746.946 287.287 744.557 287.484 742.992 289.115C742.089 290.057 741.58 291.388 741.442 292.846C741.304 294.303 741.539 295.849 742.083 297.177C743.181 299.859 745.269 301.859 747.478 303.612C755.972 310.317 766.011 313.973 776.316 314.125L776.359 315.122C765.767 316.18 755.661 320.717 747.258 328.197C745.744 329.55 744.247 331.368 743.377 333.296C742.507 335.223 742.288 337.196 743.201 338.943C744.256 340.959 746.497 341.783 748.722 342.109L748.723 342.109C760.663 343.893 770.52 337.03 777.039 325.694C777.789 324.142 778.586 322.589 779.423 321.027L780.32 321.469C779.584 323.094 778.786 324.656 777.93 326.147C773.032 336.277 770.127 346.276 770.42 358.202L770.42 358.202C770.465 360.063 770.726 362.036 771.332 363.724C771.94 365.415 772.871 366.768 774.222 367.483L774.222 367.483C776.28 368.577 778.91 367.793 780.77 365.989C782.633 364.182 783.804 361.582 784.791 358.892C788.615 348.383 789.902 336.918 788.55 325.692C788.324 324.238 788.107 322.788 787.893 321.344L788.879 321.181C789.143 322.63 789.364 324.086 789.54 325.547C791.207 336.259 793.335 346.955 798.56 355.847C799.619 357.644 801.051 359.405 802.629 360.508C804.202 361.608 805.842 362.011 807.413 361.283L807.414 361.283C809.118 360.494 810.072 358.715 810.473 356.454C810.872 354.203 810.699 351.583 810.249 349.312C807.806 337.111 800.367 327.141 792.314 318.498L792.945 317.733C804.191 324.775 819.741 325.538 832.18 321.734L832.181 321.734C834.018 321.174 835.811 320.36 836.504 318.611L836.504 318.61C836.944 317.503 836.84 316.28 836.383 315.094C835.926 313.907 835.129 312.794 834.249 311.949C828.948 306.859 821.217 306.878 814.13 307.965L814.054 307.471L814.13 307.965C807.153 309.035 800.274 310.829 793.58 313.325L793.21 312.396C804.658 307.55 816.277 301.341 823.122 289.986C823.756 288.934 824.324 287.694 824.568 286.485C824.812 285.274 824.722 284.153 824.124 283.265L824.124 283.264C823.625 282.523 822.89 282.133 822.027 281.969C821.153 281.803 820.169 281.875 819.241 282.047L819.238 282.048C807.307 284.192 800.724 292.272 792.645 302.187C792.557 302.295 792.468 302.405 792.379 302.514C791.626 303.508 790.826 304.484 789.979 305.443ZM773.432 314.492C774.37 314.343 775.313 314.222 776.259 314.127L776.309 314.625L776.302 315.124C775.349 315.111 774.399 315.067 773.453 314.995C763.797 316.537 754.645 320.952 746.926 327.824C743.823 330.595 740.739 335.311 742.758 339.174C743.929 341.414 746.386 342.272 748.649 342.603C759.663 344.249 768.889 338.691 775.423 329.199L773.432 314.492Z" stroke="#F4D35E"/>
<path d="M775.238 313.188C775.238 318.783 779.412 323.248 784.478 323.248C789.544 323.248 793.718 318.783 793.718 313.188C793.718 307.593 789.544 303.127 784.478 303.127C779.412 303.127 775.238 307.593 775.238 313.188Z" stroke="#FED33D"/>
<path d="M774.987 314.897C747.919 314.897 713.271 319.873 715.437 379.577C717.602 439.281 719.497 518.887 719.497 562.006" stroke="#FFE379" stroke-opacity="0.9" stroke-width="1.54421"/>
<path d="M660.919 254.642C676.919 254.642 697.399 260.873 696.119 335.65C694.839 410.427 693.719 510.13 693.719 564.136" stroke="#FFE379" stroke-opacity="0.9" stroke-width="1.54421"/>
<path d="M1107.15 87.7642C1113.45 93.3418 1118.86 88.6938 1116.15 81.2569C1112.56 71.3601 1094.99 73.82 1089.13 85.905C1086.73 90.8629 1087.87 105.613 1097.24 110.075C1106.61 114.537 1116.45 111.934 1121.56 110.075C1126.66 107.596 1136.87 97.0603 1134.17 83.1162C1131.48 69.2317 1128.76 61.7351 1108.95 58.0166C1093.1 55.0419 1080.13 66.3831 1075.62 78.4681C1072.92 89.6235 1070.22 100.779 1078.33 112.864C1085.95 124.226 1097.24 128.667 1110.75 127.737C1124.26 126.808 1135.85 122.25 1141.25 114.813C1148.27 105.146 1152.67 97.2789 1148.23 81.2569C1144.69 68.4591 1142.27 65.8392 1134.17 60.2615C1128.76 56.543 1113.68 51.5093 1093.87 58.0166" stroke="#FFE379" stroke-opacity="0.9" stroke-width="1.70458"/>
<path d="M1153.91 94.1719C1153.91 118.186 1134.06 137.682 1109.54 137.682C1085.02 137.682 1065.17 118.186 1065.17 94.1719C1065.17 70.1576 1085.02 50.6623 1109.54 50.6623C1134.06 50.6623 1153.91 70.1576 1153.91 94.1719Z" stroke="#FFE379" stroke-opacity="0.9" stroke-width="1.70458"/>
<path d="M1035.64 148.114C1042.22 142.827 1061.22 160.816 1059.05 140.017" stroke="#FFE379" stroke-opacity="0.9" stroke-width="1.70458"/>
<path d="M1173.59 163.584C1173.59 163.584 1167.59 166.548 1161.56 160.897C1155.53 155.246 1163.41 140.485 1148.25 141.289" stroke="#FFE379" stroke-opacity="0.9" stroke-width="1.70458"/>
<path d="M1084.39 5.15824C1084.39 5.15824 1093.99 2.25144 1098.01 9.86098C1102.02 17.4705 1082.28 34.552 1102.19 35.3654" stroke="#FFE379" stroke-opacity="0.9" stroke-width="1.70458"/>
<path d="M1017.91 44.5857C1017.91 44.5857 1022.27 39.3493 1029.95 41.9896C1037.63 44.6299 1036.05 61.4675 1049.63 54.3555" stroke="#FFE379" stroke-opacity="0.9" stroke-width="1.70458"/>
<path d="M1010.2 106.447C1010.2 106.447 1012.01 99.7541 1020.03 98.6823C1028.04 97.6105 1033.49 113.535 1042.86 100.998" stroke="#FFE379" stroke-opacity="0.9" stroke-width="1.70458"/>
<path d="M1180.4 26.8677C1180.4 26.8677 1184.21 36.5748 1177.44 41.5982C1170.68 46.6216 1152.34 27.8943 1153.76 48.7646" stroke="#FFE379" stroke-opacity="0.9" stroke-width="1.70458"/>
<path d="M1201.37 84.2403C1201.37 84.2403 1199.32 90.8575 1191.27 91.6117C1183.22 92.3659 1178.35 76.2381 1168.54 88.3959" stroke="#FFE379" stroke-opacity="0.9" stroke-width="1.70458"/>
<path d="M842.427 234.362C835.466 224.635 838.63 213.764 856.348 200.605C861.41 198.888 871.155 192.48 869.636 180.579C867.738 165.703 874.065 159.41 900.009 159.41C925.953 159.41 912.032 172.569 936.71 172.569C961.388 172.569 958.857 138.812 986.066 142.245C1013.28 145.678 999.354 167.992 1029.73 172.569C1060.1 177.146 1059.47 137.096 1094.27 159.41C1129.07 181.724 1089.21 216.625 1068.33 228.068C1047.44 239.511 1043.02 216.625 1036.06 211.476C1029.09 206.326 1008.85 216.625 999.354 228.068C989.863 239.511 962.021 240.655 947.467 234.362C932.913 228.068 941.139 217.769 921.523 216.625C901.907 215.481 898.111 234.362 890.517 240.655C882.924 246.949 849.387 244.088 842.427 234.362Z" stroke="white" stroke-width="1.31167"/>
<path d="M1212.5 132.346C1207.43 124.622 1209.73 115.989 1222.64 105.539C1226.33 104.176 1233.43 99.0871 1232.32 89.6365C1230.94 77.8233 1235.55 72.8253 1254.45 72.8253C1273.36 72.8253 1263.21 83.2755 1281.19 83.2755C1299.17 83.2755 1297.33 56.4685 1317.16 59.1947C1336.98 61.9208 1326.84 79.6407 1348.97 83.2755C1371.1 86.9104 1370.64 55.1055 1396 72.8253C1421.35 90.5452 1392.31 118.261 1377.09 127.348C1361.88 136.435 1358.65 118.261 1353.58 114.172C1348.51 110.083 1333.75 118.261 1326.84 127.348C1319.92 136.435 1299.64 137.344 1289.03 132.346C1278.43 127.348 1284.42 119.17 1270.13 118.261C1255.84 117.352 1253.07 132.346 1247.54 137.344C1242 142.342 1217.57 140.07 1212.5 132.346Z" stroke="white" stroke-width="1.31167"/>
<path d="M3.84079 127.685C-1.92944 119.293 0.693391 109.914 15.3812 98.5609C19.5778 97.08 27.6561 91.5515 26.3971 81.2841C24.8234 68.45 30.0691 63.0201 51.5763 63.0201C73.0835 63.0201 61.543 74.3734 82.0011 74.3734C102.459 74.3734 100.361 45.2498 122.917 48.2115C145.474 51.1732 133.933 70.4245 159.112 74.3734C184.291 78.3224 183.767 43.7689 212.618 63.0201C241.469 82.2714 208.421 112.382 191.111 122.255C173.8 132.127 170.128 112.382 164.358 107.94C158.588 103.497 141.802 112.382 133.933 122.255C126.065 132.127 102.984 133.114 90.9187 127.685C78.8537 122.255 85.6731 113.37 69.4115 112.382C53.15 111.395 50.0026 127.685 43.7078 133.114C37.413 138.544 9.61101 136.076 3.84079 127.685Z" stroke="white" stroke-width="1.31167"/>
</svg>
